<?xml version="1.0" standalone="no"?>
<!DOCTYPE svg PUBLIC "-//W3C//DTD SVG 20010904//EN"
 "http://www.w3.org/TR/2001/REC-SVG-20010904/DTD/svg10.dtd">
<svg version="1.0" xmlns="http://www.w3.org/2000/svg"
 width="770.000000pt" height="568.000000pt" viewBox="0 0 770.000000 568.000000"
 preserveAspectRatio="xMidYMid meet">
<metadata>
Created by potrace 1.11, written by Peter Selinger 2001-2013
</metadata>
<g transform="translate(0.000000,568.000000) scale(0.100000,-0.100000)"
fill="#000000" stroke="none">
<path d="M0 4900 c0 -698 2 -780 16 -780 8 0 20 14 25 30 6 17 17 30 25 30 8
0 14 9 14 20 0 19 7 20 120 20 l120 0 0 -40 0 -40 40 0 c33 0 40 -3 40 -20 0
-19 7 -20 120 -20 113 0 120 1 120 20 0 18 7 20 80 20 47 0 80 -4 80 -10 0 -5
18 -10 40 -10 22 0 40 -4 40 -10 0 -5 18 -10 40 -10 39 0 40 -1 40 -34 0 -26
5 -36 20 -41 23 -7 20 -36 -6 -66 -8 -8 -14 -30 -14 -47 l0 -32 -80 0 c-79 0
-80 0 -80 -25 0 -18 5 -25 19 -25 10 0 21 -7 25 -15 3 -8 12 -15 21 -15 8 0
15 7 15 15 0 11 11 15 40 15 29 0 40 -4 40 -15 0 -12 16 -15 80 -15 l80 0 0
70 0 70 80 0 80 0 0 40 0 40 80 0 80 0 0 -90 0 -90 -80 0 -80 0 0 -70 0 -70
80 0 80 0 0 45 0 45 -40 0 c-33 0 -40 3 -40 19 0 18 8 19 125 18 105 -2 125
-4 125 -17 0 -9 9 -23 20 -32 11 -10 22 -30 26 -45 4 -15 13 -35 20 -43 7 -8
19 -38 26 -65 7 -28 16 -52 19 -55 3 -3 9 -16 13 -30 7 -24 19 -52 55 -128 9
-19 26 -45 39 -58 12 -14 22 -28 22 -33 0 -12 63 -68 100 -88 41 -23 82 -32
163 -34 l57 -2 -6 -33 c-4 -22 -1 -40 10 -56 9 -12 16 -32 16 -43 0 -11 12
-40 27 -65 23 -40 26 -56 27 -141 1 -77 -2 -101 -16 -115 -20 -24 -48 -90 -40
-98 3 -3 16 -6 29 -6 19 0 23 -5 23 -32 0 -17 -7 -39 -16 -49 -22 -25 -11 -67
20 -75 18 -4 25 -14 28 -40 2 -19 1 -34 -3 -34 -25 0 -10 -98 18 -113 18 -11
17 -154 -2 -165 -6 -4 -17 -22 -25 -40 -19 -48 -74 -73 -310 -141 -83 -24
-129 -45 -210 -96 -62 -40 -94 -44 -110 -15 -12 22 -36 20 -95 -6 -37 -16
-288 -103 -331 -113 -17 -5 -69 -29 -115 -53 -46 -25 -124 -60 -174 -78 -49
-18 -97 -38 -105 -45 -8 -7 -51 -31 -96 -54 -85 -42 -103 -44 -164 -11 -26 14
-137 15 -154 1 -6 -5 -33 -12 -61 -16 -94 -12 -160 -27 -202 -46 -24 -11 -47
-19 -53 -19 -5 0 -25 -8 -45 -17 l-35 -17 0 -683 0 -683 3270 0 3270 0 0 25
c0 14 -1 26 -2 28 -1 1 4 11 10 23 20 38 -26 129 -57 109 -5 -3 -11 0 -13 5
-4 13 -64 -6 -97 -31 -17 -13 -28 -16 -41 -9 -9 5 -21 6 -25 2 -5 -4 -5 -1 -1
6 4 7 3 18 -3 25 -11 14 4 93 20 112 14 15 10 75 -6 91 -13 13 -20 11 -65 -18
-27 -18 -50 -36 -50 -40 0 -5 -7 -8 -15 -8 -8 0 -15 -3 -15 -8 0 -10 -60 -36
-67 -29 -3 3 -8 41 -12 84 -5 61 -9 78 -21 78 -9 0 -28 10 -43 21 -28 23 -28
29 -11 131 7 48 -2 55 -36 26 -12 -11 -22 -36 -26 -65 -5 -37 -14 -54 -36 -73
-30 -25 -72 -33 -82 -16 -16 26 -18 103 -3 149 21 63 50 296 42 333 -8 33 -37
39 -83 15 -34 -18 -102 -81 -102 -95 0 -6 -4 -11 -10 -11 -5 0 -10 5 -10 10 0
6 -8 10 -19 10 -19 0 -19 4 4 106 7 30 6 31 -38 43 -25 6 -48 11 -50 11 -6 0
-18 -45 -24 -90 -2 -19 -15 -49 -27 -67 -40 -58 -108 -124 -124 -121 -38 8
-53 145 -28 260 8 35 17 91 20 125 6 57 5 63 -16 77 -15 10 -46 15 -89 15 -61
-1 -67 1 -104 36 -37 33 -151 95 -176 95 -7 0 -9 -10 -5 -25 11 -45 -29 -254
-64 -330 -10 -22 -21 -48 -24 -57 -3 -10 -12 -18 -21 -18 -20 0 -20 109 0 200
8 36 14 102 15 146 0 91 -10 105 -59 83 -26 -12 -48 -50 -70 -120 -19 -60 -63
-86 -155 -92 -16 -1 -18 -7 -12 -55 6 -51 5 -55 -24 -80 -16 -15 -30 -32 -30
-40 0 -20 -36 -85 -59 -106 -12 -11 -21 -24 -21 -31 0 -21 -39 -50 -51 -38
-14 14 -1 77 22 105 11 13 44 61 75 107 52 80 54 85 43 118 -12 38 -3 170 13
191 13 16 46 15 78 -1 21 -11 30 -11 57 2 18 8 35 22 38 32 3 9 24 29 47 44
l42 28 -44 23 c-25 13 -56 28 -70 33 -14 6 -33 16 -42 21 -22 13 -75 13 -83 1
-3 -5 -16 -54 -30 -108 -18 -70 -31 -104 -48 -119 -14 -11 -41 -47 -61 -78
-37 -58 -140 -166 -158 -166 -5 0 -16 -7 -24 -15 -9 -8 -22 -15 -29 -15 -19 0
-11 45 22 125 27 66 33 83 58 166 27 87 13 90 -28 8 -56 -112 -74 -141 -110
-175 -28 -27 -76 -53 -78 -42 -24 144 -25 163 -15 190 8 20 7 33 -1 46 -13 21
-10 89 4 117 15 29 5 45 -28 45 -22 0 -32 7 -41 26 -10 22 -9 27 5 35 9 6 17
17 17 25 0 8 7 17 15 20 8 3 17 14 20 24 4 12 23 22 58 31 29 6 86 22 127 35
96 31 120 31 121 2 1 -22 1 -22 10 3 10 28 65 54 174 85 69 19 115 56 115 93
0 14 7 50 14 79 11 40 12 59 3 82 -9 22 -8 35 3 55 13 24 13 28 -1 39 -8 6
-24 29 -35 51 -11 22 -28 54 -36 70 -31 59 -91 215 -85 221 1 1 37 4 79 6 43
1 78 8 79 13 0 6 0 31 -1 56 -1 31 4 50 14 58 9 8 16 27 16 43 0 25 -6 32 -44
48 -53 24 -69 42 -64 72 4 28 69 66 115 67 50 1 81 -33 102 -114 10 -38 25
-84 34 -102 10 -18 17 -40 17 -49 0 -24 40 -85 51 -78 5 3 9 15 9 27 0 11 11
33 25 47 18 19 27 44 35 95 13 96 13 188 -1 179 -7 -4 -10 3 -9 17 4 43 0 47
-40 54 -30 5 -47 2 -65 -9 -30 -20 -32 -20 -38 3 -3 13 -17 20 -46 24 -62 8
-80 28 -74 81 4 29 0 55 -11 77 -9 17 -16 37 -16 43 0 7 -18 29 -41 51 -22 21
-45 48 -50 59 -5 12 -14 29 -21 38 -16 22 12 54 56 63 17 4 59 22 93 41 62 35
93 42 93 24 0 -6 26 -50 58 -98 31 -48 64 -99 71 -114 8 -16 18 -28 22 -28 11
0 21 38 13 51 -7 12 -8 17 -42 152 -11 43 -22 80 -25 83 -3 3 -19 -2 -36 -12
-17 -10 -33 -15 -36 -12 -3 3 5 24 19 47 28 50 25 69 -20 134 -19 26 -34 54
-34 62 0 8 -9 19 -21 25 -11 7 -32 35 -45 63 -13 29 -28 59 -33 67 -18 29 -51
101 -51 111 0 5 -8 22 -17 36 -20 31 -43 90 -43 114 0 9 -9 42 -21 75 -11 32
-26 81 -34 108 -8 26 -25 65 -39 85 -22 32 -26 48 -26 114 0 68 2 77 18 77 33
0 53 -25 67 -86 8 -33 30 -97 49 -141 20 -44 47 -118 62 -164 55 -178 67 -197
149 -235 65 -31 95 -31 96 -1 2 28 2 29 -6 48 -4 10 3 20 20 29 24 13 24 14 8
33 -10 11 -37 28 -60 38 -55 23 -56 45 -3 52 46 6 70 22 70 45 0 9 10 26 23
40 21 22 21 24 4 37 -35 25 1 99 43 88 12 -3 31 5 50 23 46 43 51 55 35 100
-8 21 -14 77 -15 125 0 83 -1 86 -32 116 -18 17 -73 52 -123 78 -120 62 -125
68 -125 169 -1 87 -17 172 -44 223 -9 18 -16 39 -16 47 0 8 -12 24 -27 35 -16
12 -33 25 -40 31 -16 13 -53 13 -53 0 0 -17 -42 -11 -57 8 -39 49 -65 128 -73
222 -5 53 -15 115 -22 138 l-13 42 -2252 0 -2253 0 0 -780z m4466 413 c9 -21
21 -47 27 -58 16 -30 22 -289 8 -337 -16 -52 -30 -40 -71 60 -17 42 -37 89
-46 104 -8 15 -21 44 -28 65 -8 21 -21 55 -30 75 -14 34 -14 38 0 53 9 9 24
13 35 10 14 -5 24 2 40 29 27 46 45 45 65 -1z"/>
<path d="M1040 3745 l0 -45 -40 0 -40 0 0 40 0 40 -80 0 -80 0 0 -50 0 -49 83
-4 82 -3 -82 -2 c-77 -2 -83 -3 -83 -23 0 -21 3 -21 78 -14 42 4 79 11 80 16
2 5 21 9 43 9 32 0 39 4 39 19 0 12 9 21 25 25 29 7 32 23 8 42 -17 13 -17 13
-1 14 24 0 11 30 -13 30 -16 0 -19 -8 -19 -45z"/>
<path d="M7632 540 c-7 -12 -17 -18 -22 -15 -6 3 -10 -1 -10 -10 0 -11 -6 -14
-24 -9 -17 4 -27 0 -36 -13 -8 -13 -13 -14 -16 -5 -9 20 -22 14 -39 -21 -8
-17 -27 -38 -42 -44 -30 -14 -70 -84 -59 -102 4 -6 0 -11 -10 -11 -12 0 -15
-6 -11 -27 3 -16 10 -53 15 -83 6 -30 21 -86 34 -125 l23 -70 133 -3 132 -3 0
281 0 280 -28 0 c-17 0 -32 -8 -40 -20z"/>
</g>
</svg>
