<?xml version="1.0" standalone="no"?>
<!DOCTYPE svg PUBLIC "-//W3C//DTD SVG 20010904//EN"
 "http://www.w3.org/TR/2001/REC-SVG-20010904/DTD/svg10.dtd">
<svg version="1.0" xmlns="http://www.w3.org/2000/svg"
 width="840.000000pt" height="705.000000pt" viewBox="0 0 840.000000 705.000000"
 preserveAspectRatio="xMidYMid meet">
<metadata>
Created by potrace 1.11, written by Peter Selinger 2001-2013
</metadata>
<g transform="translate(0.000000,705.000000) scale(0.100000,-0.100000)"
fill="#000000" stroke="none">
<path d="M0 3525 l0 -3525 4089 0 4089 0 7 69 c7 70 -6 118 -37 138 -31 19
-100 13 -145 -12 -25 -14 -60 -25 -78 -25 l-33 0 2 73 c2 46 9 85 21 109 16
32 17 43 6 78 -9 29 -17 40 -32 40 -20 0 -87 -39 -117 -68 -24 -23 -96 -62
-115 -62 -16 0 -20 16 -32 133 -6 53 -9 58 -38 71 -18 7 -41 23 -51 35 -18 19
-18 27 -8 103 14 93 7 110 -32 85 -22 -15 -46 -69 -46 -105 0 -44 -65 -102
-113 -102 -45 0 -55 75 -27 205 25 121 50 301 50 365 0 106 -74 103 -187 -5
-38 -36 -69 -61 -71 -55 -2 5 -12 10 -23 10 -22 0 -23 5 -4 90 8 36 14 68 15
71 0 9 -48 27 -92 35 l-36 6 -12 -59 c-22 -107 -40 -142 -109 -214 -36 -38
-74 -69 -84 -69 -47 0 -64 179 -33 340 8 41 17 104 21 140 9 90 -5 102 -124
110 -84 5 -90 7 -142 47 -68 52 -179 113 -206 113 -19 0 -21 -6 -22 -68 -1
-110 -50 -317 -99 -420 -47 -98 -62 -9 -33 189 23 157 27 260 11 290 -6 10
-21 19 -34 19 -40 0 -73 -37 -106 -117 -47 -114 -64 -129 -165 -148 l-60 -11
3 -64 c3 -58 1 -65 -26 -94 -16 -17 -39 -53 -51 -81 -12 -27 -35 -66 -50 -85
-15 -19 -36 -50 -45 -68 -31 -61 -74 -53 -62 12 4 20 40 84 80 143 104 154 99
140 100 294 1 161 7 175 71 164 111 -19 100 -21 162 38 32 30 68 60 81 66 12
6 22 15 22 20 0 4 -48 31 -106 60 -85 42 -114 51 -147 49 l-41 -3 -36 -126
c-20 -69 -45 -137 -55 -151 -11 -13 -47 -60 -79 -104 -33 -43 -84 -105 -114
-136 -51 -54 -127 -108 -151 -108 -18 0 -13 36 15 113 127 349 135 420 22 210
-68 -129 -112 -185 -169 -213 l-37 -19 -7 32 c-13 55 -21 325 -13 427 3 33 1
36 -34 44 -49 12 -67 50 -38 81 11 12 20 24 20 28 0 18 75 78 111 87 22 6 86
24 142 41 123 35 155 37 165 8 8 -20 8 -20 20 5 14 31 60 55 170 90 46 14 96
33 111 41 41 21 81 72 81 103 0 15 7 55 15 88 10 45 12 71 4 98 -7 26 -7 46 2
69 10 29 9 37 -16 72 -51 75 -175 351 -175 390 0 12 62 25 126 25 56 0 64 7
64 62 0 28 9 68 21 94 29 65 23 83 -40 119 -68 38 -85 61 -68 95 18 36 84 70
135 70 59 0 92 -35 121 -132 76 -247 127 -338 145 -261 4 15 18 44 32 64 35
51 44 89 51 222 4 85 3 117 -5 117 -7 0 -12 15 -12 34 0 18 -6 38 -12 43 -26
20 -78 23 -119 6 -39 -15 -41 -15 -55 6 -8 11 -21 21 -27 21 -27 0 -87 22
-102 36 -10 10 -15 34 -15 70 0 75 -38 164 -97 228 -62 66 -91 120 -77 143 6
9 39 28 75 43 35 14 93 40 128 58 35 18 69 32 75 32 6 -1 54 -70 106 -155 52
-85 98 -155 103 -155 13 0 27 51 18 68 -4 9 -23 74 -41 144 -18 69 -36 132
-41 139 -6 11 -15 10 -45 -4 -20 -10 -38 -16 -41 -13 -2 2 5 22 16 45 12 22
21 55 21 73 0 35 -66 157 -118 218 -48 57 -216 403 -228 471 -13 72 -86 286
-115 337 -49 87 -54 242 -9 242 32 0 49 -29 95 -161 38 -112 93 -264 162 -453
14 -37 40 -84 57 -104 32 -37 136 -92 173 -92 29 0 36 13 34 71 0 39 3 49 19
54 41 13 11 55 -67 94 -23 11 -44 25 -48 30 -7 12 19 26 64 35 37 7 71 31 71
51 0 6 11 26 25 45 22 30 23 35 10 50 -21 23 -19 73 3 93 10 10 31 17 46 17
18 0 42 14 74 44 l46 44 -12 73 c-6 41 -15 117 -18 169 -7 93 -8 96 -43 130
-20 19 -84 61 -142 93 -117 63 -146 87 -154 120 -3 12 -9 77 -15 145 -8 96
-17 140 -40 200 -16 42 -30 82 -30 89 0 6 -21 30 -47 52 -48 41 -88 52 -110
30 -7 -7 -23 -9 -37 -5 -48 12 -95 125 -116 276 -5 41 -15 105 -21 143 l-11
67 -2824 0 -2824 0 0 -3525z m5593 3068 c32 -68 32 -69 35 -253 3 -143 1 -194
-10 -220 l-14 -35 -18 27 c-10 15 -38 73 -63 130 -138 315 -142 331 -85 336
23 2 41 14 64 43 17 21 38 39 45 39 8 0 28 -30 46 -67z"/>
</g>
</svg>
