<?xml version="1.0" standalone="no"?>
<!DOCTYPE svg PUBLIC "-//W3C//DTD SVG 20010904//EN"
 "http://www.w3.org/TR/2001/REC-SVG-20010904/DTD/svg10.dtd">
<svg version="1.0" xmlns="http://www.w3.org/2000/svg"
 width="1350.000000pt" height="900.000000pt" viewBox="0 0 1350.000000 900.000000"
 preserveAspectRatio="xMidYMid meet">
<metadata>
Created by potrace 1.11, written by Peter Selinger 2001-2013
</metadata>
<g transform="translate(0.000000,900.000000) scale(0.100000,-0.100000)"
fill="#000000" stroke="none">
<path d="M32 8912 c-6 -52 -7 -104 -2 -126 6 -27 4 -45 -8 -69 -16 -30 -17
-338 -20 -4086 -3 -3760 -2 -4053 14 -4040 9 7 75 90 147 184 71 93 145 186
162 205 18 19 85 118 150 220 161 254 174 272 260 378 l76 92 59 0 c53 0 61 3
84 31 28 33 28 31 30 136 0 40 5 73 10 74 6 0 26 -38 46 -84 39 -91 97 -178
171 -261 56 -62 72 -91 64 -116 -9 -28 -61 -26 -105 3 -47 32 -100 57 -100 48
0 -4 23 -29 50 -56 28 -27 50 -55 50 -62 0 -7 12 -23 26 -36 23 -22 26 -30 21
-78 -2 -30 2 -93 11 -141 l14 -87 -41 -119 c-22 -65 -41 -137 -41 -159 0 -44
-14 -63 -47 -63 -32 0 -48 34 -32 71 10 27 9 32 -12 55 -13 14 -38 34 -56 45
-41 25 -41 41 -2 125 49 108 32 146 -78 169 -29 6 -33 3 -52 -32 -10 -21 -40
-61 -65 -88 -26 -28 -57 -73 -71 -102 -39 -82 -85 -284 -85 -377 0 -67 -3 -83
-21 -102 -18 -20 -19 -26 -9 -62 16 -52 10 -243 -9 -266 -10 -11 -11 -31 -7
-69 l7 -54 706 -6 c919 -9 10344 -9 10797 0 311 6 346 8 341 22 -4 9 -11 44
-16 79 -8 57 -13 67 -62 115 -29 29 -66 80 -82 113 -16 32 -52 84 -80 114 -27
31 -65 83 -83 117 -26 50 -41 66 -77 83 -55 26 -99 78 -124 145 -13 33 -41 72
-83 115 -35 36 -78 86 -96 113 -18 26 -45 66 -61 90 -16 23 -32 53 -36 67 -4
14 -25 52 -46 86 -21 33 -39 64 -39 67 0 4 -16 48 -35 97 -19 49 -35 99 -35
110 0 12 -13 49 -29 84 -17 34 -33 74 -36 89 -9 36 -276 308 -282 287 -13 -43
-14 -44 -28 -16 -16 30 -214 280 -310 391 -33 39 -88 104 -122 145 -73 89
-191 205 -368 362 -122 108 -132 119 -158 184 -55 134 -153 257 -232 290 -18
7 -43 27 -55 44 -39 55 -360 262 -472 304 -40 15 -95 39 -121 53 -56 29 -129
41 -306 51 l-123 7 -32 36 c-29 33 -38 36 -131 52 -55 10 -130 17 -166 17 -72
0 -114 14 -169 55 -19 14 -60 33 -90 42 -30 8 -82 32 -114 52 l-59 36 -256 7
c-141 3 -327 10 -413 15 -151 8 -158 9 -200 38 -67 47 -106 141 -87 207 4 16
9 58 10 96 3 98 30 150 99 192 26 16 40 32 40 46 0 11 10 50 21 85 31 93 49
185 49 254 1 33 7 78 15 100 8 22 15 48 15 58 0 24 32 86 61 118 13 14 31 39
39 55 11 21 26 31 56 36 54 11 110 59 118 100 3 18 10 101 16 183 9 142 22
215 40 215 4 0 10 47 12 104 4 64 14 133 28 179 l23 76 -31 48 c-16 26 -39 78
-51 115 -23 68 -40 97 -94 155 -50 53 -67 139 -78 383 -6 147 -15 234 -26 275
-10 33 -18 98 -18 145 -1 47 -5 101 -9 120 -4 19 -19 87 -33 150 -17 81 -34
129 -55 163 -17 26 -40 71 -52 100 -32 79 -79 154 -146 236 -34 42 -60 84 -60
96 0 24 -17 35 -54 35 -13 0 -41 13 -62 29 -59 43 -187 171 -212 211 -11 20
-58 67 -103 105 -99 85 -124 129 -134 239 l-7 78 -46 -6 c-123 -17 -139 -18
-192 -2 -29 9 -65 16 -79 16 -14 0 -37 6 -51 13 -14 7 -70 15 -125 17 -55 3
-1349 5 -2875 5 l-2775 0 -5 -40 -5 -40 -25 36 c-29 44 -53 49 -230 49 l-117
0 -11 -88z m5633 -211 c27 -5 31 -11 35 -51 l5 -45 50 0 c47 0 50 -2 53 -27 2
-20 -4 -31 -23 -44 -21 -14 -25 -23 -23 -52 3 -30 8 -37 35 -46 42 -14 46 -30
8 -34 -16 -2 -33 -9 -37 -15 -6 -9 -11 -8 -17 3 -8 12 -21 10 -82 -15 -78 -32
-85 -40 -94 -98 -5 -32 -12 -41 -41 -53 -43 -18 -54 -45 -54 -130 0 -87 33
-155 90 -184 39 -20 51 -42 30 -55 -15 -9 -12 -61 5 -75 9 -7 13 -21 9 -35 -3
-13 2 -37 10 -54 17 -31 15 -35 -16 -32 -21 3 -43 -31 -59 -91 -11 -41 -10
-51 6 -87 18 -41 18 -42 -2 -64 -10 -12 -27 -34 -36 -49 -15 -23 -24 -27 -94
-33 -171 -16 -292 -64 -315 -125 -5 -14 -17 -33 -26 -44 -13 -14 -18 -43 -21
-136 l-3 -119 -62 -53 c-103 -88 -116 -106 -116 -149 0 -21 2 -39 4 -39 2 0
38 -6 80 -14 64 -13 83 -22 133 -62 32 -26 60 -51 61 -56 2 -4 -15 -31 -38
-58 l-42 -51 4 -87 c3 -48 11 -99 18 -115 17 -35 74 -51 151 -43 64 6 79 -3
79 -50 0 -24 -12 -46 -45 -85 -33 -39 -47 -65 -56 -108 -6 -31 -20 -82 -30
-113 -10 -32 -19 -66 -19 -76 0 -11 -16 -63 -35 -115 -52 -145 -77 -253 -70
-301 4 -23 23 -75 42 -116 26 -53 38 -96 43 -146 4 -40 15 -82 25 -97 21 -32
67 -67 88 -67 21 0 26 -19 14 -51 -13 -33 -5 -53 29 -76 42 -27 194 -22 194 7
0 6 -6 10 -12 10 -23 0 -58 76 -57 122 1 54 15 96 58 175 49 90 95 109 198 78
62 -18 68 -33 77 -174 7 -103 -4 -131 -49 -131 -32 0 -45 -19 -45 -68 0 -35 6
-49 29 -73 41 -40 72 -38 97 6 14 25 91 54 149 57 44 1 115 -27 115 -45 0 -12
-36 -59 -82 -106 -20 -21 -43 -55 -52 -75 -14 -33 -14 -41 -2 -65 8 -15 17
-43 21 -63 6 -32 4 -38 -19 -53 -39 -26 -109 -31 -151 -11 -42 20 -80 13 -69
-12 23 -56 27 -72 22 -77 -10 -11 -220 15 -288 35 -70 21 -103 48 -114 93 -3
15 -19 41 -35 59 l-28 31 -32 -24 c-46 -34 -107 -33 -150 4 -36 30 -57 33 -84
13 -15 -11 -15 -15 -3 -25 8 -6 17 -27 20 -45 4 -18 16 -42 27 -52 12 -11 30
-35 40 -56 10 -20 29 -44 41 -55 35 -27 70 -81 58 -88 -14 -9 -13 -58 2 -73 7
-7 20 -12 29 -12 25 0 74 -67 94 -130 10 -30 24 -70 31 -88 8 -18 14 -44 14
-58 0 -31 27 -43 44 -19 20 27 36 -3 45 -85 7 -67 10 -74 48 -108 22 -20 50
-51 62 -69 13 -19 27 -30 36 -27 9 4 15 -3 17 -23 2 -22 8 -28 25 -26 13 2 24
-4 27 -15 3 -9 20 -25 36 -34 35 -20 47 -47 56 -124 6 -48 5 -54 -10 -48 -12
4 -16 0 -16 -15 0 -12 6 -21 13 -22 10 0 10 -2 0 -6 -9 -3 -13 -26 -13 -67 0
-49 -4 -67 -20 -84 -25 -26 -45 -27 -119 -6 -55 16 -72 22 -121 42 -34 13 -91
62 -85 72 8 14 -58 21 -67 8 -6 -10 -11 -9 -18 4 -6 9 -32 43 -58 75 -125 150
-222 350 -311 640 -17 56 -36 105 -41 108 -13 8 -28 -25 -36 -76 -4 -24 -15
-60 -26 -80 -19 -34 -19 -38 -3 -125 12 -62 20 -174 25 -374 4 -157 11 -299
15 -317 6 -25 2 -41 -15 -70 -12 -20 -18 -39 -12 -41 5 -1 17 -8 26 -15 14
-11 10 -17 -39 -56 -58 -46 -121 -115 -222 -241 -33 -41 -108 -124 -167 -185
l-106 -110 -21 25 c-65 78 -59 74 -74 53 -7 -10 -17 -15 -21 -10 -4 4 7 28 24
52 38 54 39 67 10 80 -47 21 -63 111 -31 176 9 18 19 57 21 86 3 29 9 53 14
53 5 0 2 10 -6 21 -22 32 7 89 46 89 14 0 18 -8 18 -36 0 -19 -5 -44 -10 -55
-9 -16 -7 -19 9 -19 25 0 61 90 68 172 5 48 3 59 -11 64 -24 9 -56 -24 -56
-56 0 -23 -4 -27 -27 -26 -28 1 -28 2 -28 66 0 36 9 130 19 210 19 140 19 147
1 256 -12 75 -16 136 -12 185 6 73 52 290 82 380 8 26 12 60 9 76 -8 40 10 52
89 60 58 5 66 4 76 -14 13 -26 4 -57 -48 -160 -43 -87 -51 -123 -26 -123 9 0
47 16 85 35 38 19 74 35 80 35 5 0 10 -14 10 -30 0 -22 -12 -44 -43 -78 -62
-66 -69 -83 -49 -105 14 -16 14 -19 2 -27 -8 -6 -22 -10 -31 -10 -27 0 -87
-75 -94 -117 -7 -40 -17 -66 -37 -96 -11 -16 -9 -21 15 -41 24 -19 28 -30 30
-79 2 -45 -2 -59 -17 -70 -23 -17 -47 -190 -28 -209 19 -19 39 -1 45 40 4 21
16 60 27 86 12 25 27 74 35 109 7 34 29 110 49 169 20 59 41 133 47 165 6 32
22 84 35 117 13 32 27 75 30 95 4 20 13 45 20 56 18 25 18 43 0 47 -11 2 -4
18 24 58 21 30 55 84 76 120 20 36 50 87 67 113 l30 48 -12 130 c-18 200 -64
321 -196 514 -84 122 -135 219 -135 254 0 16 -10 52 -22 81 -19 46 -20 57 -10
96 12 46 8 74 -12 74 -21 0 -94 -60 -116 -95 -15 -24 -29 -35 -46 -35 -13 0
-23 5 -21 12 1 6 -14 15 -33 19 -72 16 -110 99 -130 284 -6 55 -15 109 -20
120 -4 11 -11 40 -14 65 -2 25 -12 50 -21 57 -10 6 -19 29 -21 50 -1 21 -8 81
-13 133 -6 52 -11 136 -11 186 l0 91 38 31 c22 17 50 54 64 84 26 54 117 163
118 140 0 -7 16 -22 36 -34 28 -16 34 -26 32 -46 -2 -21 -12 -30 -52 -44 -66
-23 -100 -58 -144 -147 -33 -66 -37 -83 -40 -171 -5 -117 9 -171 73 -294 53
-102 52 -105 59 124 3 106 10 186 20 224 16 57 49 116 66 116 13 0 22 -179 12
-235 -6 -27 -18 -80 -28 -116 -17 -62 -17 -69 -1 -135 10 -37 30 -86 45 -108
15 -21 37 -54 49 -72 12 -18 38 -45 58 -59 41 -32 45 -30 107 48 49 63 49 96
1 259 -34 115 -37 136 -44 308 -4 102 -13 219 -19 260 -12 69 -19 331 -12 460
1 30 0 105 -4 166 -5 102 -3 119 20 193 19 59 26 104 26 160 0 96 32 280 64
364 60 160 189 352 319 473 146 136 439 347 521 376 52 18 197 23 261 9z m390
-1758 c6 -17 52 -311 62 -403 6 -52 -38 -313 -68 -410 -25 -78 -50 -103 -126
-125 -32 -9 -72 -29 -89 -45 -33 -29 -120 -67 -130 -57 -3 3 -11 52 -18 110
-11 86 -19 115 -49 168 l-35 64 31 54 c17 29 90 115 162 190 146 152 155 169
174 328 6 46 17 96 26 113 17 33 49 40 60 13z m-381 -1139 c3 -9 6 -28 6 -44
0 -23 8 -32 50 -54 27 -14 59 -26 70 -26 27 0 26 -24 -5 -94 -14 -33 -25 -75
-25 -101 0 -35 -6 -51 -27 -74 -30 -33 -176 -101 -215 -101 -18 0 -39 18 -77
65 -57 70 -75 79 -85 41 -4 -17 -19 -29 -51 -41 -65 -26 -79 -16 -72 48 9 74
33 101 92 105 41 3 53 9 95 51 27 27 57 66 69 88 11 22 31 47 45 57 14 9 26
26 26 37 0 41 18 59 59 59 26 0 41 -5 45 -16z m-1662 -1858 c-6 -45 -71 -234
-102 -296 -29 -58 -224 -280 -246 -280 -24 0 -85 31 -91 46 -4 10 8 29 31 52
30 29 36 41 31 61 -12 52 -12 195 1 243 17 65 24 72 97 99 34 13 105 42 157
66 109 49 127 50 122 9z m-902 -285 c3 -1 -3 -6 -12 -12 -32 -18 -108 -136
-128 -198 -11 -33 -29 -75 -39 -93 -25 -42 -53 -145 -76 -275 -10 -57 -22
-103 -27 -103 -4 0 -8 9 -8 19 0 26 -37 51 -73 51 -20 0 -30 6 -34 19 -2 10
-17 28 -33 39 -31 24 -50 87 -50 171 0 27 -7 68 -16 92 -8 24 -18 74 -21 112
-7 81 4 99 75 117 26 6 68 21 94 31 64 26 135 35 248 33 52 -1 97 -2 100 -3z
m270 -37 c6 -14 10 -43 10 -64 0 -33 5 -41 34 -58 27 -16 35 -28 41 -64 4 -23
14 -58 21 -77 12 -30 12 -37 -1 -58 -15 -23 -15 -23 25 -23 27 0 40 -4 40 -14
0 -19 -29 -88 -46 -107 -7 -8 -21 -68 -29 -135 -19 -147 -19 -147 -56 -179
-17 -14 -35 -42 -41 -63 -5 -20 -20 -48 -32 -62 -31 -35 -69 -110 -57 -110 6
0 11 5 11 10 0 6 9 10 20 10 22 0 25 -7 11 -29 -12 -18 -60 -6 -67 17 -3 9
-10 26 -16 36 -8 15 -7 18 6 13 20 -8 20 2 0 24 -15 17 -15 22 -2 56 9 21 19
61 22 88 4 28 16 84 27 127 10 42 19 102 19 133 0 53 2 57 35 76 19 12 33 24
30 29 -6 10 -56 1 -74 -14 -12 -9 -13 -8 -6 4 4 8 14 22 22 32 16 18 12 22
-29 32 -18 4 -28 13 -28 25 0 10 -9 26 -20 36 -23 21 -25 59 -9 171 11 69 16
81 54 120 47 50 71 55 85 18z m-874 -109 c-3 -9 -10 -64 -16 -124 -8 -83 -7
-142 5 -262 29 -299 38 -564 26 -725 -6 -82 -15 -152 -20 -157 -20 -20 -32 43
-46 231 -8 120 -19 212 -28 233 -30 71 -40 105 -39 133 1 16 -3 35 -9 42 -17
20 -59 -30 -59 -71 0 -25 -8 -40 -31 -59 -17 -14 -34 -26 -39 -26 -19 0 -42
-104 -52 -235 -14 -177 -15 -254 -4 -385 8 -99 7 -104 -9 -88 -21 20 -73 112
-155 273 -60 120 -122 215 -139 215 -17 0 -24 -91 -13 -169 6 -42 27 -130 47
-196 20 -66 39 -141 42 -167 6 -46 5 -48 -19 -48 -28 0 -48 17 -48 41 0 23
-55 77 -83 81 -14 2 -27 15 -36 36 -31 69 -57 11 -30 -66 9 -25 8 -42 -5 -79
-18 -53 -21 -155 -6 -232 12 -63 5 -81 -30 -81 -33 0 -45 13 -64 67 -8 23 -28
60 -45 83 -17 24 -31 48 -31 53 0 6 -15 33 -32 61 -18 27 -44 73 -58 100 -14
28 -29 51 -35 51 -19 0 -17 -70 3 -135 43 -133 62 -201 62 -214 0 -20 -23 -26
-106 -26 -74 0 -74 0 -74 -27 0 -14 6 -34 14 -42 8 -9 18 -28 21 -43 7 -26 5
-28 -24 -28 -17 0 -31 5 -31 10 0 6 -24 33 -53 60 -30 28 -62 67 -73 88 -10
20 -29 51 -40 67 -49 68 -67 175 -40 239 8 18 75 111 151 206 75 96 152 197
171 226 59 94 773 796 909 894 84 61 101 82 109 130 4 24 14 52 23 62 20 22
47 24 39 3z m1894 -1380 c8 -10 10 -28 5 -53 -4 -20 -8 -55 -10 -77 -6 -69
-23 -144 -39 -167 -9 -13 -16 -44 -17 -73 0 -33 -3 -44 -8 -31 -11 27 -19 10
-22 -48 -3 -41 0 -50 16 -56 16 -6 17 -8 5 -16 -8 -5 -15 -13 -15 -19 -1 -5
-4 -44 -9 -85 -6 -63 -12 -78 -34 -97 -23 -19 -26 -31 -32 -105 -4 -60 -13
-96 -30 -128 -13 -25 -28 -47 -32 -48 -5 -2 -20 -26 -33 -53 -14 -27 -30 -49
-36 -49 -6 0 -9 -7 -5 -15 3 -8 -5 -25 -19 -39 -14 -14 -25 -30 -25 -36 0 -6
-20 -36 -45 -67 -25 -30 -45 -59 -45 -64 0 -4 -7 -6 -15 -3 -9 4 -15 1 -15 -7
0 -12 -42 -51 -77 -72 -18 -11 -41 2 -47 29 -9 35 -29 30 -24 -6 5 -35 5 -35
-28 -14 -23 16 -24 18 -8 35 10 11 28 19 41 19 45 0 62 17 56 53 -4 29 0 35
42 67 73 55 164 196 165 255 0 11 11 44 25 73 14 30 25 66 25 80 0 27 10 64
40 147 25 68 31 102 32 176 0 36 6 71 13 79 7 8 16 31 20 50 10 46 16 55 26
39 16 -27 19 -1 4 35 -10 24 -13 42 -7 49 5 7 12 24 16 38 3 15 19 41 36 59
23 24 30 42 30 70 0 59 15 90 44 90 13 0 29 -7 36 -15z m1135 -218 c55 -34
129 -76 165 -95 59 -31 71 -33 130 -29 84 6 207 46 343 109 59 28 110 48 114
45 3 -4 -8 -24 -26 -45 -17 -20 -40 -50 -49 -66 -9 -16 -36 -53 -59 -82 -24
-30 -43 -64 -44 -76 -1 -43 -15 -60 -74 -91 -58 -31 -60 -34 -67 -79 -8 -61
-43 -117 -80 -130 -28 -10 -78 -79 -78 -109 0 -8 -6 -26 -14 -41 -12 -23 -12
-29 0 -39 8 -7 14 -22 12 -33 -2 -17 -10 -21 -43 -21 -22 -1 -46 3 -53 9 -8 6
-21 4 -37 -4 -18 -10 -35 -11 -62 -4 -33 8 -39 15 -60 69 -15 38 -21 70 -17
87 4 19 -1 37 -16 58 -17 24 -19 33 -10 50 9 17 5 30 -24 78 -28 46 -36 74
-45 147 -6 50 -20 115 -31 146 -21 61 -36 178 -26 204 9 23 35 14 151 -58z"/>
</g>
</svg>
