<?xml version="1.0" standalone="no"?>
<!DOCTYPE svg PUBLIC "-//W3C//DTD SVG 20010904//EN"
 "http://www.w3.org/TR/2001/REC-SVG-20010904/DTD/svg10.dtd">
<svg version="1.0" xmlns="http://www.w3.org/2000/svg"
 width="800.000000pt" height="600.000000pt" viewBox="0 0 800.000000 600.000000"
 preserveAspectRatio="xMidYMid meet">
<metadata>
Created by potrace 1.11, written by Peter Selinger 2001-2013
</metadata>
<g transform="translate(0.000000,600.000000) scale(0.100000,-0.100000)"
fill="#000000" stroke="none">
<path d="M5944 5863 c-379 -3 -382 -3 -387 -24 -6 -21 -7 -21 -23 -4 -17 16
-18 16 -26 -5 -9 -23 5 -59 28 -73 19 -11 18 -37 -1 -37 -8 0 -15 -4 -15 -10
0 -5 7 -10 15 -10 17 0 22 -19 29 -110 3 -36 8 -73 11 -81 5 -13 100 -59 121
-59 2 0 4 13 4 29 0 26 4 30 40 36 42 7 100 -1 100 -15 0 -4 9 -10 20 -13 13
-3 21 1 25 14 4 12 16 19 31 19 22 0 24 -4 25 -52 3 -78 3 -82 13 -97 8 -12
10 -41 16 -171 1 -24 2 -23 20 10 11 22 15 39 9 44 -13 14 -11 39 2 30 6 -3
15 -1 19 6 5 9 9 9 14 1 4 -6 2 -11 -3 -11 -15 0 -14 -27 1 -32 10 -4 10 -10
1 -30 -9 -20 -8 -30 9 -56 11 -18 24 -29 29 -26 5 3 9 0 9 -5 0 -6 21 -11 50
-11 l50 0 0 39 c0 22 -5 42 -12 44 -8 3 -6 6 5 6 14 1 17 -8 17 -54 0 -48 3
-55 20 -55 10 0 30 12 44 26 22 25 25 25 46 11 13 -9 17 -16 9 -19 -8 -3 -7
-9 5 -20 9 -9 20 -28 26 -42 5 -15 21 -31 35 -38 17 -8 25 -19 25 -36 0 -24 1
-24 19 -8 22 20 33 10 38 -37 3 -30 22 -71 23 -49 0 7 13 12 30 12 33 0 41
-15 13 -24 -10 -3 -4 -4 14 -2 29 2 32 -1 38 -32 4 -21 2 -38 -4 -42 -6 -3 64
-7 156 -9 91 -1 169 -4 173 -6 4 -3 53 -5 110 -6 l102 -1 -6 -27 c-12 -47 -11
-56 2 -55 6 1 28 2 48 3 27 1 37 6 41 21 6 22 20 25 43 10 11 -7 11 -10 2 -10
-16 0 -62 -45 -62 -60 0 -5 5 -10 10 -10 6 0 10 7 10 15 0 19 36 38 60 30 12
-4 20 -2 20 4 0 6 17 11 38 12 31 0 34 2 15 9 -19 8 -20 12 -10 34 6 13 15 22
18 20 4 -2 20 1 36 7 45 15 87 -4 80 -36 -3 -20 1 -27 18 -31 29 -7 39 -43 19
-65 -13 -15 -10 -17 32 -23 59 -8 157 -8 178 0 12 4 13 11 6 24 -5 9 -6 20 -3
24 3 3 -1 6 -9 6 -9 0 -18 12 -21 28 -6 33 -4 36 22 27 13 -4 18 -11 14 -22
-3 -8 -1 -18 5 -22 7 -4 13 -19 14 -34 2 -20 9 -28 31 -33 19 -4 34 -1 43 8
12 12 11 22 -6 73 -26 75 -25 78 8 70 46 -10 56 12 48 103 -3 42 -8 102 -10
132 -2 30 -9 86 -15 123 -6 38 -9 72 -7 76 3 4 -2 40 -10 81 -8 41 -14 89 -14
107 0 17 -9 55 -19 85 -11 29 -23 70 -26 91 -3 21 -15 47 -26 58 -10 10 -19
26 -19 35 0 9 -3 14 -8 12 -4 -1 -28 -11 -55 -22 -26 -10 -47 -24 -47 -31 0
-6 -11 -22 -25 -35 -14 -13 -25 -34 -25 -47 0 -19 -5 -23 -30 -23 -20 0 -35
-8 -46 -25 -10 -15 -26 -25 -40 -25 -31 0 -31 23 0 40 20 10 23 16 13 30 -8
14 -8 22 2 33 10 13 9 21 -3 45 -8 16 -23 32 -32 36 -13 5 -14 9 -4 22 7 8 19
13 27 10 13 -5 18 6 7 16 -9 10 -74 -15 -67 -25 3 -6 1 -7 -5 -3 -7 4 -12 11
-12 17 0 17 40 49 63 50 14 0 17 3 7 6 -8 4 -21 12 -28 20 -7 7 -20 13 -27 13
-19 0 -67 -22 -85 -39 -19 -18 -25 0 -12 39 19 53 8 67 -65 74 -35 4 -239 6
-451 5 -213 0 -398 1 -412 3 -14 2 -197 2 -406 1z"/>
<path d="M138 5241 l2 -618 418 -8 c229 -4 689 -6 1022 -5 333 2 613 2 623 1
16 -1 18 -7 13 -38 -10 -63 -9 -308 3 -482 6 -91 8 -167 6 -169 -2 -3 -27 -6
-56 -8 -80 -6 -112 -31 -156 -124 -20 -43 -27 -75 -31 -146 -4 -88 -4 -93 36
-185 22 -52 45 -114 51 -139 39 -151 64 -211 98 -237 31 -24 39 -25 107 -20
64 6 75 4 81 -11 7 -16 30 -102 41 -151 11 -53 51 -51 -890 -51 -479 0 -982
-3 -1118 -7 l-248 -6 0 -789 0 -788 53 -2 52 -1 -50 -7 -50 -7 45 -2 c25 -1
73 -4 108 -7 35 -2 71 0 80 6 14 8 14 9 2 10 -11 0 -12 2 -3 8 7 4 29 6 49 4
25 -3 32 -7 23 -13 -10 -6 -7 -9 11 -9 l25 -1 -25 -10 c-23 -10 -24 -11 -8
-23 10 -7 15 -16 11 -19 -3 -4 -12 -2 -19 4 -8 7 -14 7 -19 -1 -3 -5 -15 -10
-25 -10 -11 0 -24 -9 -30 -19 -9 -18 -89 -61 -142 -76 -12 -3 -38 -14 -56 -23
l-32 -17 0 -452 0 -453 2904 0 2904 0 6 23 c3 13 8 55 12 93 3 38 10 84 16
102 5 19 12 61 15 95 2 34 8 103 12 152 5 55 4 95 -2 103 -6 8 -7 36 -1 75 4
34 7 89 6 121 -1 64 -29 166 -44 166 -5 0 -20 -12 -34 -26 -19 -18 -34 -24
-58 -22 -17 2 -31 7 -31 13 0 5 -14 17 -32 26 -38 19 -104 17 -138 -5 -14 -9
-39 -16 -58 -16 -25 0 -38 -7 -55 -30 -12 -16 -22 -32 -22 -34 0 -9 -33 -47
-80 -92 l-44 -43 -11 31 c-10 33 -35 50 -35 25 0 -7 -9 -22 -20 -32 -11 -10
-20 -25 -20 -34 -1 -27 -28 -53 -57 -55 -15 -1 -38 -7 -50 -14 -12 -6 -29 -9
-38 -6 -9 4 -25 -2 -38 -13 -22 -19 -71 -25 -94 -10 -7 4 -21 3 -31 -2 -10 -5
-38 -10 -62 -9 -24 0 -46 -5 -48 -11 -2 -6 -22 -11 -43 -11 -22 0 -50 -5 -61
-11 -11 -6 -24 -7 -29 -2 -4 4 -70 5 -146 1 -157 -9 -530 -3 -614 10 -30 4
-67 5 -81 1 -23 -6 -272 6 -308 15 -8 2 8 5 35 6 28 1 73 5 100 10 68 12 197
36 254 49 162 35 241 48 361 57 41 3 81 10 88 16 7 6 30 14 52 18 31 6 40 4
40 -6 0 -10 14 -14 46 -14 28 0 43 4 39 10 -4 6 0 24 9 40 8 16 10 32 5 35 -5
3 -48 9 -96 12 -49 3 -97 12 -108 19 -11 8 -31 14 -45 14 -14 0 -31 5 -38 12
-9 9 -13 7 -18 -5 -9 -25 -31 -21 -50 9 -14 20 -24 25 -46 22 -20 -3 -29 0
-34 14 -4 13 -15 18 -44 18 -21 0 -45 7 -54 15 -14 14 -18 14 -38 1 -32 -20
-71 -10 -91 24 -17 28 -17 29 5 32 13 2 33 -3 46 -10 18 -12 25 -12 37 -2 11
9 13 16 5 24 -18 18 -11 34 28 57 20 13 39 27 40 31 6 14 39 9 52 -8 19 -22
-9 -50 -36 -36 -16 9 -19 6 -19 -14 0 -13 3 -24 7 -24 4 0 13 -6 21 -14 20
-21 62 -8 108 33 l40 36 -31 33 -30 34 22 39 c12 21 26 39 32 39 19 0 189 144
213 179 33 49 30 94 -7 121 -33 23 -39 40 -15 40 24 0 18 25 -14 59 -22 24
-38 31 -66 31 -32 0 -36 -3 -29 -17 4 -10 9 -38 11 -63 4 -39 0 -50 -27 -83
-18 -21 -46 -44 -63 -51 -60 -26 -66 -35 -78 -136 -7 -52 -17 -101 -22 -107
-5 -7 -24 -13 -42 -13 -62 0 -64 14 -69 400 -2 162 -8 294 -12 292 -5 -2 -20
-14 -34 -27 -14 -13 -42 -40 -62 -59 -20 -20 -40 -36 -44 -36 -5 0 -28 -19
-52 -43 -25 -23 -42 -35 -39 -27 3 8 11 32 18 53 7 20 15 37 19 37 5 0 11 11
14 25 4 14 20 40 37 57 16 17 32 42 35 55 4 13 14 23 23 23 23 0 41 20 41 45
0 11 7 32 14 48 16 29 6 36 -18 12 -8 -8 -26 -15 -40 -15 -21 0 -26 5 -26 25
0 14 6 28 12 30 14 6 23 116 10 114 -31 -5 -42 4 -48 39 -4 20 -13 45 -21 54
-8 9 -12 22 -8 28 8 14 -31 96 -50 104 -8 3 -15 12 -15 20 0 7 -6 16 -14 19
-10 4 -50 98 -43 103 1 0 21 -1 44 -4 26 -2 51 -13 65 -27 35 -34 59 -42 106
-37 44 4 54 20 27 42 -8 7 -15 20 -15 30 0 10 -9 20 -19 23 -12 3 -21 17 -26
38 -12 65 -28 90 -68 112 -22 12 -48 27 -58 33 -31 18 -59 46 -59 59 0 18 47
35 115 40 49 3 65 1 90 -16 50 -35 68 -67 70 -124 1 -39 8 -60 28 -86 17 -22
29 -57 36 -98 10 -61 21 -92 21 -58 0 27 20 29 30 3 5 -14 14 -26 20 -26 5 0
10 -11 10 -24 0 -40 17 -39 42 1 29 47 45 107 54 200 6 64 4 74 -15 99 -14 18
-21 41 -21 70 0 52 -35 113 -65 115 -11 1 -36 3 -55 5 -67 6 -75 5 -89 -16
-18 -27 -40 -25 -81 5 -26 20 -41 24 -67 19 -28 -5 -37 -1 -68 32 -29 32 -35
44 -30 68 3 16 0 45 -7 65 -13 38 -83 131 -99 131 -16 0 -69 53 -69 69 0 32
41 82 82 101 33 14 44 26 55 59 13 39 12 44 -22 118 -20 42 -52 94 -73 114
-42 42 -45 58 -61 252 -9 103 -8 122 6 143 30 47 54 26 94 -81 13 -33 35 -78
50 -100 36 -53 164 -176 211 -203 46 -26 178 -73 188 -67 4 3 19 -7 34 -22
l26 -26 6 31 c8 39 7 47 -6 48 -5 1 -14 2 -20 3 -5 0 -10 8 -10 16 0 9 -7 18
-16 22 -11 4 -13 13 -9 35 5 19 2 35 -8 46 -8 9 -17 30 -20 47 -4 24 1 35 33
67 36 34 37 37 17 40 -22 3 -25 19 -12 76 7 30 48 29 73 -2 26 -33 47 -16 28
23 -7 14 -12 44 -10 65 1 28 -7 56 -27 95 -29 54 -113 146 -140 153 -8 1 -42
33 -77 69 -62 65 -62 67 -37 73 14 4 25 13 25 21 0 9 5 24 12 35 11 16 9 23
-10 40 -12 11 -22 27 -22 35 0 8 -4 15 -10 15 -5 0 -10 -6 -10 -12 0 -17 -20
12 -20 30 0 18 30 27 40 12 12 -19 61 -4 53 16 -4 10 -13 14 -27 10 -12 -3
-27 -1 -35 3 -12 8 -12 14 -1 40 7 17 12 43 13 57 0 16 3 22 9 16 13 -13 68 8
68 25 0 7 -12 16 -27 19 -33 8 -45 23 -37 47 3 9 1 17 -5 17 -6 0 -8 6 -5 13
2 7 -2 26 -10 42 -8 16 -13 32 -10 37 3 5 -4 24 -15 42 -12 19 -19 40 -16 48
3 8 -1 21 -10 28 -8 7 -15 18 -15 24 0 16 -36 48 -80 72 -34 19 -88 58 -122
91 -10 9 -27 21 -39 27 -12 6 -27 20 -33 31 -6 11 -17 24 -23 28 -20 13 -15
34 9 40 21 6 21 7 4 26 -17 19 -17 21 -2 27 9 4 25 -1 35 -10 10 -9 25 -16 34
-16 9 0 21 -9 27 -19 5 -11 20 -21 32 -23 13 -2 24 -11 26 -23 7 -33 22 -47
39 -34 15 13 21 10 37 -23 6 -12 24 -29 39 -38 15 -8 61 -46 101 -85 162 -157
265 -245 285 -245 13 0 21 -6 21 -17 0 -10 12 -31 26 -48 23 -27 25 -28 21 -7
-3 12 -1 22 4 22 16 0 10 29 -8 39 -10 6 -13 11 -6 11 6 0 15 10 19 22 4 13
14 28 22 34 12 9 12 14 2 31 -11 18 -10 25 10 54 16 22 20 34 12 37 -18 6 -15
43 5 57 14 10 15 18 5 56 -6 24 -7 46 -2 49 4 3 11 46 14 95 2 50 5 94 5 98 1
5 5 6 10 3 5 -3 12 1 15 10 10 26 7 34 -14 34 -16 0 -19 5 -15 23 6 24 8 111
4 140 -2 16 -113 17 -2168 17 l-2166 0 3 -619z"/>
<path d="M3985 3541 c-7 -57 -5 -62 27 -102 18 -23 50 -60 71 -83 21 -22 56
-67 78 -98 21 -31 43 -60 49 -63 21 -13 9 56 -21 117 -38 76 -43 90 -63 151
-19 62 -81 137 -111 137 -21 0 -24 -6 -30 -59z"/>
<path d="M7781 2723 c-9 -10 -16 -12 -19 -5 -2 7 -12 8 -33 0 -22 -7 -33 -7
-45 2 -11 10 -20 10 -37 2 -12 -6 -49 -14 -82 -18 -41 -4 -54 -9 -41 -14 14
-4 16 -9 8 -14 -7 -4 -10 -12 -7 -17 4 -5 -2 -9 -12 -10 -10 0 -13 -3 -5 -6 6
-2 12 -18 12 -33 0 -16 6 -35 14 -42 11 -11 11 -15 -3 -25 -15 -12 -15 -14 2
-27 19 -14 23 -36 7 -36 -16 0 -12 -37 5 -54 12 -11 14 -25 9 -52 -4 -24 -3
-35 3 -31 6 4 16 0 23 -8 10 -13 9 -15 -11 -15 l-24 -1 24 -19 c18 -15 19 -20
7 -20 -25 0 -19 -36 9 -48 15 -7 25 -20 25 -32 0 -12 -4 -18 -10 -15 -5 3 -10
-1 -10 -9 0 -9 -7 -16 -15 -16 -23 0 -18 -15 17 -50 17 -18 27 -35 22 -38 -30
-22 -53 -137 -30 -153 15 -11 -2 -39 -24 -39 -28 0 -25 -14 10 -43 37 -31 38
-50 5 -65 -14 -6 -25 -16 -25 -21 0 -10 38 -24 58 -22 22 3 12 -29 -13 -41
l-25 -11 26 -24 c15 -13 33 -22 40 -19 9 3 14 -2 14 -14 0 -11 -4 -20 -10 -20
-5 0 -10 -9 -10 -21 0 -11 -5 -17 -10 -14 -6 4 -8 11 -5 16 8 12 -22 42 -35
34 -6 -4 -5 -12 5 -21 8 -9 15 -29 15 -46 0 -24 3 -28 13 -19 11 8 13 -1 12
-51 -1 -52 1 -62 17 -66 21 -5 19 -27 -3 -28 -8 0 -22 -4 -31 -8 -17 -8 -17
-10 2 -33 18 -23 18 -59 -1 -47 -5 3 -9 0 -9 -5 0 -6 7 -11 15 -11 8 0 15 4
15 8 0 4 11 8 25 8 14 0 25 -3 25 -7 0 -4 29 -11 64 -14 49 -6 63 -10 59 -21
-3 -9 2 -14 16 -14 12 0 21 -6 21 -15 0 -8 3 -15 8 -15 12 0 16 194 17 861 0
582 -1 637 -17 652 -21 21 -49 21 -67 0z"/>
<path d="M6246 778 c-8 -12 -25 -22 -38 -23 -19 -1 -24 -9 -29 -43 -3 -23 -8
-45 -12 -48 -8 -8 -24 31 -32 79 -10 62 -20 42 -19 -41 0 -42 -8 -124 -18
-182 -9 -58 -18 -126 -18 -152 0 -26 -4 -58 -10 -72 -5 -14 -12 -55 -16 -91
l-7 -65 100 0 100 0 13 57 c7 32 25 84 41 116 15 32 33 73 39 92 6 19 25 45
41 59 16 14 29 31 29 39 0 31 31 87 47 87 15 0 15 3 -4 21 -17 17 -24 19 -42
10 -11 -7 -21 -16 -21 -21 0 -12 -85 -133 -105 -150 -9 -7 -18 -10 -21 -7 -5
5 11 74 26 112 42 103 59 190 44 229 -10 25 -69 21 -88 -6z"/>
<path d="M6472 567 c-5 -7 -12 -25 -16 -41 -4 -15 -15 -40 -25 -55 -96 -140
-141 -235 -141 -296 l0 -35 249 0 c210 0 250 2 254 15 9 22 -19 156 -35 166
-13 9 -24 -1 -77 -70 -30 -40 -51 -40 -52 -1 -1 17 -3 35 -4 40 -1 6 -3 28 -4
51 l-1 41 -37 -22 c-21 -12 -42 -28 -46 -36 -4 -8 -15 -14 -22 -14 -19 0 -19
33 1 85 22 62 29 148 13 161 -24 19 -47 23 -57 11z"/>
<path d="M7806 458 c-23 -68 -32 -138 -17 -138 24 0 9 -29 -19 -39 -22 -7 -30
-16 -30 -33 0 -51 -11 -70 -36 -64 -16 4 -24 2 -24 -6 0 -8 14 -14 33 -14 17
-1 50 -7 73 -14 69 -22 74 -16 74 103 0 132 -10 228 -22 220 -6 -3 -7 3 -3 16
3 11 2 21 -2 21 -5 0 -17 -24 -27 -52z"/>
</g>
</svg>
