<?xml version="1.0" standalone="no"?>
<!DOCTYPE svg PUBLIC "-//W3C//DTD SVG 20010904//EN"
 "http://www.w3.org/TR/2001/REC-SVG-20010904/DTD/svg10.dtd">
<svg version="1.0" xmlns="http://www.w3.org/2000/svg"
 width="1366.000000pt" height="1025.000000pt" viewBox="0 0 1366.000000 1025.000000"
 preserveAspectRatio="xMidYMid meet">
<metadata>
Created by potrace 1.11, written by Peter Selinger 2001-2013
</metadata>
<g transform="translate(0.000000,1025.000000) scale(0.100000,-0.100000)"
fill="#000000" stroke="none">
<path d="M689 10002 l-427 -2 -6 -23 c-8 -31 -8 -1232 1 -1223 4 3 6 54 4 111
-1 67 1 105 8 105 6 0 12 -38 14 -92 3 -91 3 -90 6 32 3 86 6 114 11 90 7 -31
7 -32 9 -7 l1 27 88 1 c48 1 95 1 104 0 37 -4 50 14 51 71 l2 56 -59 6 c-32 3
-88 6 -122 6 l-64 0 0 34 c0 27 4 33 18 31 9 -2 34 -6 54 -9 l38 -5 0 40 0 39
64 0 c55 0 66 3 71 19 4 12 12 18 21 14 11 -4 14 -33 14 -154 l0 -149 25 0
c25 0 26 0 19 -65 -7 -65 -7 -65 19 -65 21 0 25 5 29 38 3 20 1 39 -4 40 -4 2
-7 13 -7 25 1 17 2 18 6 5 5 -21 23 -24 24 -5 0 6 0 76 -1 155 -1 96 2 142 9
142 7 0 11 -52 11 -162 0 -89 2 -159 4 -157 2 2 6 110 9 239 7 274 5 242 16
236 4 -3 9 -102 9 -219 1 -166 4 -222 16 -248 8 -19 15 -28 15 -21 1 6 8 12
16 12 11 0 15 -11 15 -40 0 -33 4 -40 19 -40 21 0 31 -19 31 -55 0 -13 4 -25
9 -27 4 -1 12 -14 16 -27 5 -15 4 -21 -3 -17 -6 3 -14 1 -19 -6 -8 -13 -9 -18
-14 -95 -1 -24 -6 -43 -11 -43 -14 0 -9 -29 8 -38 18 -10 10 -60 -12 -69 -22
-8 -16 -23 9 -23 41 0 51 -14 32 -43 -16 -25 -16 -27 4 -48 12 -13 21 -17 21
-10 0 7 5 9 10 6 6 -3 10 -1 10 5 0 6 4 9 9 5 13 -8 29 24 24 45 -3 10 -15 21
-26 25 -12 3 -17 8 -11 11 12 5 7 52 -9 72 -6 8 -6 12 1 12 6 0 17 11 24 25
13 24 15 24 36 9 22 -15 23 -21 19 -122 -3 -83 -7 -107 -18 -108 -8 0 -24 -4
-37 -8 -14 -4 -28 -3 -36 3 -14 12 -79 4 -71 -9 3 -4 -2 -11 -11 -14 -10 -4
-14 -14 -11 -25 7 -29 -32 -39 -155 -39 -60 -1 -113 -4 -118 -7 -19 -12 -100
-13 -133 -1 -18 6 -61 9 -95 8 l-62 -4 0 -43 c0 -44 0 -44 33 -41 18 2 47 7
65 10 17 4 32 4 32 -1 0 -10 106 -10 116 0 4 4 13 2 19 -3 7 -5 106 -12 221
-15 245 -6 257 -7 279 -29 16 -16 19 -16 35 -1 16 15 20 14 45 -9 24 -23 27
-31 22 -68 -4 -27 -2 -37 4 -27 6 9 9 10 9 2 0 -7 6 -13 14 -13 10 0 13 10 11
34 -6 65 19 102 51 75 9 -7 27 -9 51 -4 21 5 259 9 528 10 637 3 1369 13 1470
22 44 4 105 5 135 3 58 -4 87 -4 160 0 25 1 88 -1 140 -4 88 -5 95 -6 98 -27
4 -23 -14 -188 -24 -225 -4 -15 1 -23 19 -31 l24 -11 -4 -168 c-2 -93 -5 -232
-7 -309 -1 -77 1 -151 7 -165 5 -14 10 -56 12 -95 1 -38 6 -153 10 -255 9
-223 11 -220 -94 -220 -38 0 -83 -5 -102 -11 -33 -11 -109 -82 -109 -102 0 -5
-11 -18 -24 -28 -14 -11 -30 -36 -37 -57 -7 -20 -18 -46 -24 -57 -32 -51 -50
-206 -36 -307 10 -73 58 -206 100 -280 18 -32 58 -162 81 -262 6 -27 19 -55
28 -62 9 -7 18 -23 19 -36 9 -103 36 -158 78 -158 21 0 56 -29 45 -36 -3 -2
13 -13 35 -24 31 -16 50 -19 85 -14 101 15 210 93 180 129 -7 8 -18 15 -26 15
-17 0 -36 35 -32 58 4 20 88 29 88 9 0 -8 3 -8 9 2 5 8 25 19 45 26 l36 13 1
-42 1 -41 13 30 c7 17 18 30 24 30 6 0 10 5 9 10 -2 6 -8 10 -14 9 -6 -1 -9
20 -6 57 4 47 1 60 -11 65 -13 5 -14 10 -4 31 8 19 8 29 -2 46 -12 18 -11 23
6 37 30 24 29 101 -1 165 -13 28 -27 62 -30 78 -16 70 -21 84 -40 112 -12 16
-27 36 -33 43 -7 7 -13 20 -13 28 0 8 -7 25 -15 38 -13 19 -14 37 -7 97 5 41
8 77 6 81 -2 3 -9 53 -15 110 -5 56 -17 132 -25 168 -30 128 -34 247 -14 370
6 36 9 106 7 155 -5 86 -4 91 20 108 18 14 33 17 60 12 19 -3 69 -9 111 -11
43 -3 88 -7 102 -8 14 -2 42 -4 62 -4 54 -3 68 -21 57 -79 -5 -26 -14 -49 -19
-51 -6 -2 -7 -20 -4 -42 7 -41 1 -47 -51 -65 -16 -5 -34 -19 -40 -30 -5 -11
-23 -37 -38 -57 -25 -32 -30 -49 -34 -120 -4 -46 -12 -93 -21 -105 -13 -21
-12 -25 12 -54 14 -17 29 -43 32 -57 3 -15 10 -37 16 -48 7 -15 7 -28 -2 -44
-13 -24 -7 -50 12 -50 19 0 42 -58 45 -115 4 -67 13 -107 28 -125 13 -16 35
-97 38 -140 1 -17 -5 -28 -20 -35 -31 -13 -36 -31 -15 -52 34 -35 42 -66 21
-92 -11 -13 -19 -33 -19 -46 0 -13 -6 -25 -14 -28 -20 -8 -27 -74 -11 -115 18
-49 27 -132 15 -132 -6 0 -10 -9 -10 -21 0 -11 4 -17 10 -14 6 4 10 -5 10 -19
0 -14 0 -29 0 -33 1 -5 -8 -9 -19 -11 -28 -4 -33 -28 -17 -75 29 -90 29 -97
-1 -98 -50 -3 -98 3 -101 12 -2 5 -12 9 -22 9 -21 0 -31 20 -23 48 4 15 -3 22
-28 31 -30 10 -35 9 -56 -16 -12 -16 -20 -34 -18 -41 3 -8 5 -24 5 -38 0 -17
7 -25 25 -30 36 -9 50 -39 30 -66 -17 -26 -20 -64 -4 -73 27 -17 141 -20 169
-5 25 14 41 -6 28 -36 -7 -16 -22 -25 -49 -29 -32 -6 -39 -11 -38 -28 1 -17 2
-18 6 -4 9 34 58 11 69 -33 5 -22 18 -40 29 -40 8 0 27 -13 43 -30 l30 -29
-32 -5 c-17 -3 -85 -7 -150 -10 -102 -4 -122 -7 -139 -25 l-20 -20 31 -96 c18
-53 32 -101 32 -106 0 -6 -9 -22 -20 -36 -27 -34 -26 -61 3 -65 12 -2 22 -9
22 -17 0 -26 -24 -23 -50 5 -14 15 -28 24 -32 21 -3 -4 -1 -7 5 -7 7 0 12 -4
12 -10 0 -5 -13 -10 -30 -10 -22 0 -30 -5 -30 -18 0 -10 -5 -23 -11 -29 -18
-18 -4 -40 31 -46 17 -4 29 -11 25 -17 -3 -5 0 -10 8 -10 10 0 19 -18 27 -50
7 -28 18 -53 24 -58 19 -11 28 -72 14 -90 -10 -12 -7 -19 15 -38 32 -28 34
-52 7 -87 l-20 -26 25 -36 c13 -21 29 -53 34 -72 6 -19 21 -45 35 -58 17 -16
26 -35 26 -54 0 -17 6 -63 14 -103 8 -40 19 -98 25 -128 5 -30 14 -74 20 -97
6 -23 9 -61 6 -85 -8 -62 -73 -225 -99 -246 -11 -9 -30 -30 -40 -47 -27 -42
-196 -207 -231 -225 -16 -8 -41 -28 -56 -45 l-27 -30 -179 0 c-176 0 -179 -1
-273 -34 -52 -18 -99 -37 -105 -41 -5 -4 -41 -25 -80 -45 -38 -21 -79 -45 -90
-55 -11 -10 -38 -21 -60 -25 -22 -4 -54 -15 -70 -25 -17 -9 -61 -20 -98 -24
-37 -3 -79 -11 -93 -16 -14 -6 -60 -17 -102 -26 -43 -9 -79 -19 -82 -23 -10
-15 -137 -70 -196 -86 -40 -10 -97 -15 -174 -14 -111 2 -220 -14 -220 -33 0
-4 -20 -8 -44 -8 -25 0 -48 -6 -55 -14 -7 -8 -37 -16 -71 -18 -37 -3 -65 -10
-73 -19 -6 -9 -32 -22 -57 -29 -25 -7 -56 -20 -70 -29 -14 -9 -45 -16 -70 -17
-25 0 -63 -6 -85 -13 -22 -7 -56 -16 -75 -20 -30 -6 -35 -10 -32 -32 2 -24 -4
-28 -125 -68 -71 -23 -135 -41 -145 -41 -9 0 -28 -15 -43 -32 -20 -24 -35 -32
-52 -30 -26 4 -63 -22 -63 -43 0 -14 -31 -25 -74 -25 -20 0 -40 -12 -67 -40
-22 -22 -39 -43 -39 -48 0 -4 -12 -8 -28 -8 -15 -1 -56 -15 -92 -31 -36 -17
-75 -33 -87 -37 -13 -4 -23 -14 -23 -22 0 -17 -23 -18 -53 -3 -12 7 -19 8 -15
4 4 -4 -4 -16 -17 -27 -18 -14 -37 -19 -68 -16 -36 2 -44 -1 -52 -20 -10 -22
-25 -30 -25 -13 0 17 -39 -1 -46 -21 -5 -18 -8 -18 -29 -4 -22 14 -23 14 -29
-22 -3 -20 -6 -341 -6 -713 0 -624 1 -677 17 -683 22 -9 6534 -5 6778 4 105 3
179 8 165 9 -14 1 -33 5 -42 9 -14 6 -15 9 -3 26 12 16 17 17 30 6 8 -7 15
-10 15 -6 0 4 11 -1 25 -10 29 -19 45 -12 45 22 0 25 1 24 -80 28 -19 1 -31
12 -50 48 -14 27 -31 48 -37 48 -7 0 -13 5 -13 10 0 14 -46 13 -69 -2 -23 -14
-51 3 -51 32 0 23 46 48 62 32 8 -8 15 -7 25 4 8 8 29 14 48 14 20 0 35 6 39
15 3 8 17 15 30 15 14 0 31 8 38 18 12 17 62 44 83 46 25 2 54 28 64 57 6 17
19 33 30 36 11 3 21 12 23 21 2 10 15 16 36 18 50 4 56 8 77 53 13 27 28 44
45 48 44 10 50 22 45 77 -2 28 -8 69 -13 91 l-8 40 -8 -30 c-7 -28 -8 -28 -19
-10 -21 38 -66 75 -90 75 -14 0 -27 -4 -29 -9 -5 -16 -85 -16 -103 -1 -19 15
-242 24 -251 9 -2 -4 -18 -4 -34 1 -17 5 -30 6 -30 3 0 -3 -6 -1 -13 6 -9 7
-70 9 -193 5 -283 -8 -298 -9 -321 -24 -18 -11 -26 -12 -45 -2 -15 8 -33 9
-53 4 -17 -5 -40 -6 -52 -1 -28 10 -170 15 -179 6 -4 -4 0 -7 9 -7 9 0 17 -4
17 -10 0 -5 -9 -10 -21 -10 -11 0 -17 -4 -14 -10 3 -5 1 -10 -5 -10 -6 0 -8
11 -6 24 3 17 -2 27 -20 36 -13 7 -26 21 -30 32 -4 15 -14 22 -26 17 -2 0 -21
6 -43 14 -22 9 -75 18 -117 22 -56 5 -78 11 -83 22 -9 25 5 32 91 49 67 13 98
14 200 4 129 -12 251 -4 384 26 36 8 127 28 203 44 75 16 155 39 178 50 22 12
57 23 77 25 20 1 55 10 77 18 22 9 51 16 65 17 15 0 30 4 36 10 5 5 24 10 42
12 43 3 53 18 13 18 -32 0 -42 16 -16 26 29 11 -31 44 -97 54 -92 13 -159 34
-174 55 -20 27 -111 38 -144 17 -22 -15 -76 -39 -162 -75 -20 -8 -40 -8 -78 2
-33 8 -55 10 -63 3 -41 -32 -97 -18 -90 23 6 30 -13 34 -22 5 -9 -28 -43 -25
-55 4 -12 33 2 80 26 85 22 4 44 20 44 32 0 13 -74 11 -88 -3 -9 -9 -15 -9
-23 -1 -17 17 -1 33 32 33 16 0 38 9 49 20 11 11 22 20 25 20 4 0 33 18 66 40
57 38 180 100 259 130 19 8 56 27 81 42 25 15 53 28 61 28 9 0 21 7 28 15 6 8
22 17 33 21 34 10 98 64 108 91 5 14 18 27 29 30 24 6 25 12 5 49 -11 22 -15
64 -15 164 0 74 -4 173 -10 220 -5 47 -10 157 -11 245 -2 141 -4 162 -20 175
-17 13 -17 21 -8 70 6 30 13 72 16 93 5 37 5 37 -31 37 -25 0 -38 6 -46 20
-15 28 -31 24 -60 -13 -14 -17 -40 -45 -58 -62 -18 -16 -57 -54 -85 -84 -29
-29 -69 -62 -89 -72 -21 -11 -38 -26 -38 -35 0 -30 -32 -9 -46 31 -20 57 -18
69 14 81 36 14 75 84 66 120 -5 20 -2 26 15 31 14 3 21 13 21 29 0 15 25 48
75 99 41 42 75 82 75 88 0 7 -9 18 -20 25 -28 17 -26 42 4 42 30 0 45 19 53
64 6 41 4 42 -38 21 -26 -14 -30 -14 -35 -1 -3 8 1 25 10 38 9 12 16 37 16 54
0 18 8 38 20 49 16 15 20 31 20 87 0 66 -1 68 -25 68 -33 0 -55 36 -62 104 -4
36 -12 61 -24 72 -11 10 -19 31 -19 48 0 17 -7 40 -15 50 -8 11 -15 34 -15 51
0 38 -23 73 -52 77 -31 4 -92 110 -104 180 -4 21 -13 43 -20 49 -18 15 -18 33
1 49 11 10 24 9 62 -4 25 -9 57 -16 70 -16 21 0 56 -16 124 -56 11 -6 28 -19
39 -29 11 -10 20 -16 21 -14 5 32 12 128 10 147 -1 6 -7 12 -13 12 -18 1 -64
51 -71 78 -3 13 1 28 10 38 14 13 14 17 0 32 -9 9 -20 28 -25 42 -10 27 -104
80 -141 80 -31 0 -51 11 -51 29 0 9 -13 22 -28 29 -40 17 -53 50 -37 89 7 17
22 36 32 41 18 10 167 30 213 29 83 -2 106 3 106 24 0 18 -5 20 -31 15 -22 -4
-26 -3 -15 4 12 8 11 10 -8 10 -13 0 -32 -4 -42 -10 -29 -16 -148 25 -162 55
-12 27 -40 36 -91 30 -20 -3 -37 -3 -37 -1 0 16 44 76 49 67 9 -14 27 0 34 27
4 19 2 22 -10 18 -13 -5 -14 -4 -3 9 7 9 10 26 6 42 -41 167 -95 249 -148 222
-13 -7 -20 -4 -29 13 -7 13 -18 26 -25 30 -6 5 -10 17 -7 27 3 13 -7 30 -32
53 -32 29 -36 40 -40 88 -1 30 -6 63 -10 73 -10 25 2 54 17 39 19 -19 28 -14
28 13 0 19 -5 25 -21 25 -15 0 -19 5 -15 16 3 8 2 12 -3 9 -13 -7 -24 30 -16
55 3 11 2 20 -3 20 -5 0 -9 12 -8 28 1 16 6 26 14 25 10 -3 14 5 14 27 0 3 -3
15 -7 28 -4 15 -2 22 7 22 7 0 30 9 51 20 20 11 37 16 37 10 0 -5 7 -10 15
-10 18 0 21 55 4 65 -7 5 -8 25 -4 56 8 55 -4 64 -31 24 -17 -27 -39 -24 -31
5 2 9 -4 22 -14 28 -10 7 -16 18 -13 25 2 7 -5 22 -16 34 -11 12 -20 28 -20
36 0 7 -4 17 -9 23 -8 7 -17 55 -23 122 -1 6 -7 12 -15 12 -16 0 -17 12 0 29
10 11 10 14 0 18 -18 6 -16 48 2 63 15 13 20 42 8 53 -3 4 -8 71 -10 149 -2
88 -8 150 -16 163 -7 11 -11 39 -9 63 3 38 7 44 44 62 46 22 75 25 110 11 13
-5 35 -12 50 -15 32 -7 61 -64 52 -100 -7 -29 31 -164 56 -198 11 -15 20 -34
20 -43 0 -8 6 -15 13 -15 6 0 27 -25 46 -56 19 -30 42 -59 53 -65 10 -5 51
-43 90 -84 48 -49 80 -75 95 -75 12 0 27 -8 32 -19 16 -28 59 -33 84 -8 14 14
17 22 9 25 -15 5 -16 43 0 39 6 -1 14 12 18 29 8 35 40 94 52 94 4 0 8 16 8
36 0 21 -4 33 -10 29 -10 -6 -26 22 -17 31 2 3 30 7 61 9 90 6 111 13 122 43
6 15 7 40 3 55 -6 21 -2 37 14 62 81 127 85 139 62 165 -9 10 -30 22 -47 25
-23 6 -27 9 -17 21 9 11 8 15 -5 20 -25 10 -19 38 15 63 27 20 29 24 16 39 -8
10 -18 26 -21 38 -4 12 -22 30 -41 40 -19 10 -35 24 -35 31 0 7 -12 16 -26 19
-16 4 -23 12 -20 20 3 9 -2 14 -15 14 -11 0 -42 15 -69 33 -38 25 -62 34 -101
36 -28 1 -57 -3 -65 -10 -18 -15 -28 -6 -52 42 -14 28 -23 35 -53 37 l-36 3
-7 81 c-8 91 0 109 60 128 30 10 33 14 27 42 -4 20 -1 33 7 38 11 7 11 14 3
32 -11 25 -2 60 22 85 9 8 13 23 10 32 -3 10 4 28 15 41 12 14 20 37 20 59 0
20 6 45 13 56 8 11 15 47 16 80 1 33 4 73 7 89 4 16 0 39 -7 53 -11 20 -10 33
8 89 17 52 19 71 11 90 -6 13 -16 24 -22 24 -16 0 -58 48 -52 58 3 5 -3 17
-14 27 -11 10 -20 30 -20 45 0 14 -4 30 -9 36 -6 5 -11 32 -13 59 l-3 50 -40
5 c-48 7 -68 18 -61 35 6 16 -13 35 -36 35 -19 0 -24 15 -8 25 19 12 10 33
-17 43 -16 5 -41 21 -56 36 -29 27 -61 34 -73 15 -6 -10 -144 123 -144 140 0
4 -15 12 -34 19 -72 26 -109 91 -70 123 10 8 14 22 10 40 -3 17 0 32 9 39 16
13 20 58 7 76 -4 5 -25 19 -47 31 -22 11 -62 32 -88 46 -26 15 -56 27 -66 27
-9 0 -22 5 -28 11 -16 16 -44 4 -37 -16 9 -22 -11 -18 -56 11 -33 22 -46 25
-82 19 -24 -3 -54 -6 -68 -4 -14 1 -46 2 -72 3 -42 1 -47 3 -42 22 7 26 -37
49 -66 34 -23 -12 -65 2 -74 25 -9 23 -8 25 9 19 18 -7 20 12 3 23 -7 4 -22 8
-33 8 -14 0 -21 8 -23 27 -3 22 2 29 22 34 14 3 23 10 20 15 -3 5 -1 9 5 9 5
0 11 -6 14 -12 5 -18 117 -14 128 4 5 8 2 15 -9 19 -12 5 -4 9 23 14 22 3 45
8 50 10 6 2 -379 4 -855 4 -476 0 -1502 2 -2280 3 -778 2 -1607 2 -1841 0z
m-336 -573 c33 2 47 -1 48 -11 4 -44 5 -130 1 -120 -5 16 -82 16 -82 0 0 -9
-4 -8 -10 2 -9 13 -10 13 -12 0 -1 -8 -4 57 -8 145 -3 88 -3 176 0 195 3 19 7
-21 10 -90 l5 -124 48 3z m5550 -3160 c-6 -6 -9 -17 -6 -24 2 -8 -6 -19 -18
-26 -20 -10 -21 -13 -7 -23 10 -7 14 -23 11 -46 -2 -19 -5 -48 -6 -65 -2 -25
-6 -29 -24 -27 -16 2 -26 -4 -35 -22 -13 -29 -42 -34 -56 -10 -8 14 -10 14
-21 0 -18 -22 -31 -20 -31 4 0 11 4 20 9 20 12 0 36 61 33 83 -2 9 3 19 10 22
8 3 14 15 15 26 2 24 31 60 47 58 25 -3 34 2 39 21 3 13 14 20 28 20 17 0 20
-3 12 -11z m-1048 -4714 c50 -14 113 -32 140 -39 81 -23 144 -35 252 -50 111
-16 123 -20 123 -41 0 -27 -38 -38 -73 -20 -18 9 -77 25 -132 36 -103 21 -262
65 -280 79 -5 4 -30 10 -54 14 -49 7 -81 22 -81 36 0 14 4 13 105 -15z"/>
<path d="M12646 9145 c-10 -11 -16 -33 -16 -63 0 -26 4 -42 8 -36 11 17 49 26
57 14 7 -11 -15 -70 -27 -70 -4 0 -12 8 -17 18 -9 15 -10 14 -10 -8 0 -14 6
-36 13 -49 l13 -23 6 31 c4 17 13 31 21 31 8 0 17 6 19 13 3 6 6 2 6 -10 1
-12 9 -27 19 -32 14 -8 14 -11 2 -12 -8 -1 -18 -1 -22 0 -5 0 -8 -6 -8 -15 0
-8 4 -12 10 -9 11 7 25 -39 16 -54 -4 -5 -2 -12 4 -16 5 -3 10 -18 10 -33 1
-26 1 -26 15 -8 8 11 15 30 15 42 0 12 11 32 25 45 33 32 31 46 -6 54 -28 6
-29 8 -15 24 22 24 20 64 -3 85 -11 10 -22 28 -25 42 -4 13 -13 24 -20 24 -8
0 -16 4 -18 9 -6 19 -55 23 -72 6z"/>
<path d="M6986 5108 c-37 -21 -85 -27 -97 -12 -6 8 -18 14 -25 14 -22 0 5 -38
31 -44 12 -3 27 -17 33 -31 6 -14 18 -25 26 -25 8 0 18 -9 21 -20 3 -11 10
-20 14 -20 4 0 13 -11 19 -25 10 -21 8 -31 -9 -61 -28 -50 -19 -76 51 -163 38
-46 60 -82 60 -98 0 -25 28 -67 82 -122 15 -15 37 -48 49 -72 12 -24 24 -46
25 -48 7 -9 53 56 54 75 0 12 7 38 15 58 16 37 30 182 27 263 -4 98 -37 122
-178 130 -67 4 -94 10 -94 19 0 21 18 26 23 7 3 -12 5 -10 6 7 1 17 -6 28 -21
35 -13 6 -31 27 -41 48 -9 20 -22 37 -27 37 -6 0 -10 11 -10 24 0 31 -10 37
-34 24z"/>
<path d="M1083 4620 c-62 -3 -115 -9 -119 -13 -4 -4 2 -7 14 -7 21 0 22 -4 21
-118 0 -71 5 -129 12 -145 7 -15 8 -37 4 -54 -4 -15 -6 -84 -5 -153 2 -153 2
-147 -6 -192 -5 -29 -1 -45 15 -70 11 -18 21 -27 21 -20 0 20 28 14 35 -9 4
-11 8 -55 11 -97 2 -42 12 -107 23 -145 11 -37 16 -65 11 -62 -14 8 -21 -11
-23 -62 -2 -37 1 -47 16 -51 24 -6 16 -26 -11 -30 -29 -4 -28 -25 3 -58 29
-31 30 -37 10 -54 -8 -7 -12 -16 -9 -22 3 -5 1 -14 -4 -21 -6 -7 -13 -30 -18
-51 -6 -37 -6 -39 16 -33 15 4 20 3 13 -4 -7 -7 -6 -23 0 -48 8 -31 8 -42 -4
-53 -13 -13 -14 -32 -10 -136 1 -12 9 -26 19 -29 9 -4 20 -11 24 -17 8 -11 0
-47 -11 -56 -3 -3 -12 -18 -20 -33 -13 -25 -13 -32 7 -73 18 -37 21 -55 16
-100 -4 -31 -13 -61 -20 -68 -27 -27 -29 -137 -3 -120 6 3 15 1 22 -5 7 -5 17
-7 22 -3 14 10 18 44 7 51 -10 6 -15 25 -13 52 1 12 8 15 26 11 19 -3 25 -10
25 -31 0 -15 5 -32 12 -39 9 -9 9 -12 -2 -12 -12 -1 -12 -3 1 -10 11 -6 15
-18 11 -35 -3 -20 0 -25 15 -25 26 0 73 -23 72 -35 -4 -33 1 -38 19 -22 10 10
23 17 29 17 18 0 56 24 92 57 l35 32 -27 10 c-26 10 -31 20 -28 49 1 7 -11 12
-34 12 -19 0 -35 5 -35 10 0 6 29 10 68 10 74 0 98 10 89 34 -9 24 9 19 28 -6
13 -20 18 -21 35 -10 15 9 20 9 20 0 0 -6 9 -2 21 10 11 12 24 20 30 17 5 -4
9 -1 9 4 0 6 7 11 15 11 9 0 12 6 9 15 -4 8 -16 15 -28 15 -27 0 -41 10 -50
35 l-7 20 -11 -20 c-27 -51 -98 -88 -98 -51 0 7 -10 16 -22 19 -18 5 -19 8 -8
22 7 9 23 15 34 14 43 -3 46 0 46 46 0 44 0 45 -33 45 -50 0 -52 11 -7 31 22
10 40 24 40 32 0 8 9 24 20 37 11 13 20 31 20 42 0 22 -28 24 -44 2 -9 -12
-22 -14 -65 -8 -42 5 -55 11 -64 31 -7 16 -17 23 -29 20 -13 -4 -18 1 -18 16
1 28 27 60 63 75 21 9 27 18 27 41 0 25 -5 30 -26 33 -29 3 -48 36 -34 57 13
22 48 3 55 -29 3 -16 17 -36 31 -44 22 -15 24 -15 24 1 0 10 4 24 9 32 7 11
12 6 19 -20 6 -21 5 -39 0 -46 -7 -9 -2 -16 16 -24 14 -7 25 -18 24 -25 -3
-14 50 -67 70 -70 8 -2 11 3 8 13 -3 8 -6 27 -6 43 0 22 -5 29 -29 33 -25 5
-29 12 -41 67 -8 40 -19 64 -31 71 -13 6 -19 6 -19 -1 0 -5 -5 -10 -11 -10 -8
0 -8 5 1 15 7 8 16 15 21 15 4 0 19 4 34 10 25 9 25 11 10 39 -8 16 -24 32
-35 36 -22 7 -48 45 -30 45 5 0 10 -5 10 -11 0 -5 5 -7 11 -3 11 6 74 -9 117
-29 18 -9 25 -7 37 9 23 31 18 58 -17 84 l-31 23 37 19 c31 16 37 24 33 44 -2
13 0 24 5 24 6 0 8 7 5 15 -4 8 -1 17 5 21 6 4 8 3 4 -4 -4 -7 7 -10 34 -7 30
3 40 0 40 -11 0 -8 5 -12 10 -9 6 3 10 -3 10 -14 0 -11 -9 -22 -21 -26 -16 -5
-18 -9 -9 -15 10 -6 9 -13 -4 -31 -9 -13 -16 -42 -16 -66 0 -29 -6 -46 -18
-55 -10 -7 -21 -21 -25 -30 -3 -10 -16 -18 -27 -18 -28 0 -26 -20 3 -21 21 0
21 -1 -3 -11 l-25 -10 30 -11 c40 -13 39 -12 20 -41 -10 -14 -15 -33 -11 -41
3 -10 -1 -15 -12 -16 -13 0 -11 -3 6 -9 12 -5 22 -14 22 -19 0 -5 14 -12 31
-16 47 -11 62 10 50 66 -12 53 4 79 44 71 14 -2 25 0 25 4 0 5 22 7 49 6 41
-3 48 -6 44 -22 -7 -26 -53 -68 -54 -49 0 8 -4 6 -8 -6 -5 -11 -5 -27 -1 -35
12 -24 1 -39 -46 -60 -61 -28 -59 -45 9 -55 25 -4 36 -2 40 9 4 9 23 18 44 22
34 5 93 43 93 59 0 4 -6 13 -14 21 -8 8 -12 23 -8 36 l5 22 10 -22 c6 -12 17
-21 26 -20 11 2 15 -3 13 -16 -5 -27 18 -66 38 -66 19 0 37 17 42 40 2 8 10
20 18 26 12 10 12 14 1 28 -8 9 -11 20 -7 24 4 4 16 -3 26 -15 33 -41 70 -21
75 39 2 25 8 34 24 36 27 4 29 42 2 42 -10 0 -26 11 -35 25 -9 14 -20 24 -24
21 -5 -3 -14 -1 -22 5 -13 7 -12 9 3 9 32 0 19 29 -15 32 -25 2 -34 8 -36 24
-2 14 -9 21 -20 19 -66 -13 -72 -16 -72 -35 0 -15 7 -20 25 -20 14 0 25 -4 25
-10 0 -5 7 -7 15 -4 9 4 15 0 15 -9 0 -9 3 -23 7 -33 4 -11 3 -15 -5 -10 -6 4
-12 -4 -14 -21 -2 -20 -9 -29 -25 -31 -13 -2 -23 2 -23 8 0 6 -7 18 -15 27 -8
8 -12 19 -9 25 4 6 -1 6 -14 -1 -31 -16 -34 -14 -19 17 20 42 16 66 -13 71
-14 1 -28 7 -31 12 -3 6 -22 12 -42 16 -30 4 -38 2 -44 -13 -4 -11 -13 -24
-21 -30 -7 -5 -12 -18 -10 -29 2 -14 -6 -21 -32 -28 -19 -5 -40 -13 -46 -18
-8 -6 -14 -4 -18 7 -8 22 -8 36 2 30 5 -3 16 3 24 13 9 11 22 23 30 27 15 10
48 89 48 117 0 9 7 17 15 17 8 0 15 -4 15 -10 0 -5 8 -7 18 -4 14 5 14 3 -2
-10 -22 -18 -14 -21 14 -6 13 7 19 6 24 -5 7 -20 65 -20 93 0 l22 15 -25 25
c-19 19 -35 25 -69 25 -25 0 -45 5 -45 10 0 6 11 10 24 10 13 0 29 7 36 15 18
21 41 19 47 -5 8 -29 68 -28 84 2 10 18 8 24 -7 35 -10 7 -21 13 -25 13 -4 0
-10 7 -13 16 -5 14 -1 15 29 10 33 -6 35 -5 35 19 0 37 25 26 27 -11 0 -16 2
-33 2 -38 1 -5 11 -1 24 10 33 30 74 54 92 54 22 0 18 -38 -5 -45 -32 -10 -24
-28 10 -21 22 4 30 2 30 -9 0 -30 141 -33 165 -3 16 20 55 40 55 28 0 -5 6
-10 13 -10 7 0 18 -9 25 -21 7 -11 21 -19 30 -18 23 3 69 -17 74 -32 6 -18 28
-1 28 22 0 13 -12 24 -38 35 l-39 15 24 46 c25 50 29 73 13 73 -5 0 -10 9 -10
20 0 16 7 20 31 20 22 0 30 4 26 13 -10 26 9 38 63 40 l54 2 10 45 c5 25 11
39 13 33 3 -7 16 -13 29 -13 13 0 24 -4 24 -10 0 -5 -4 -10 -10 -10 -5 0 -10
-4 -10 -10 0 -19 39 -10 45 10 3 11 15 20 25 20 9 0 20 9 23 20 3 11 1 20 -3
20 -12 0 15 63 29 68 22 7 -11 39 -35 34 -13 -2 -24 -7 -24 -11 0 -3 -11 -7
-25 -7 -21 -2 -23 1 -18 27 3 17 0 35 -7 44 -14 16 -7 45 11 45 8 0 8 -4 -1
-15 -16 -19 -9 -27 28 -31 39 -4 53 24 49 101 -2 46 -6 61 -19 63 -11 2 -18
-5 -20 -20 -2 -13 -11 -24 -23 -27 -16 -3 -17 -1 -7 11 6 8 9 18 6 21 -11 10
20 34 38 29 10 -2 20 2 24 12 3 9 12 16 20 16 8 0 14 7 14 15 0 8 -9 15 -20
15 -17 0 -19 3 -10 19 5 11 10 32 10 48 0 22 -2 25 -11 13 -8 -12 -10 -12 -7
5 6 39 138 24 138 -16 0 -11 4 -19 10 -19 5 0 9 19 8 42 -1 25 3 43 10 46 7 2
19 10 26 18 20 20 44 17 51 -5 4 -13 27 -24 78 -37 59 -16 73 -23 75 -41 6
-44 -14 -63 -68 -63 -28 0 -50 -5 -50 -10 0 -6 6 -10 13 -8 7 2 12 -1 12 -7 0
-10 -4 -11 -33 -14 -18 -1 7 -27 34 -34 16 -4 16 -5 -3 -6 -19 -1 -23 -7 -23
-36 0 -19 4 -35 9 -35 5 0 5 -16 1 -37 -12 -53 -8 -106 9 -111 9 -3 11 0 6 8
-6 9 -3 9 14 1 17 -9 20 -9 15 3 -3 8 0 17 7 22 8 5 10 3 4 -7 -5 -8 -5 -11 0
-7 4 4 8 34 9 65 1 56 2 58 29 58 32 -1 35 10 7 27 -11 7 -20 18 -20 25 0 7
-8 17 -17 22 -10 6 -12 11 -5 11 6 0 12 7 12 15 0 10 10 15 28 15 15 0 51 0
80 -1 28 0 52 4 52 8 0 14 -79 32 -84 19 -2 -6 -5 -3 -5 6 -1 10 8 22 19 28
11 6 18 15 15 19 -10 17 23 33 44 21 16 -8 21 -8 21 2 0 10 3 9 9 -1 11 -16
95 -9 118 11 11 9 16 9 23 -1 16 -26 -1 -49 -41 -56 -21 -4 -39 -11 -39 -16 0
-5 -5 -9 -11 -9 -5 0 -7 6 -4 13 4 6 0 4 -8 -6 -9 -10 -18 -18 -21 -17 -4 1
-12 -1 -19 -3 -6 -3 11 -4 38 -2 39 2 55 -1 72 -17 25 -23 61 -21 77 5 9 14 7
21 -6 31 -15 11 -16 18 -6 43 15 39 4 67 -22 60 -15 -4 -22 3 -32 29 -6 19
-16 34 -21 34 -5 0 -4 7 3 15 7 8 17 15 22 15 5 0 17 7 25 16 13 13 17 13 24
2 15 -22 10 -47 -11 -58 -23 -12 -27 -40 -6 -40 7 0 19 7 26 15 7 8 19 15 26
15 8 0 14 5 14 10 0 6 7 10 15 10 10 0 15 -10 15 -34 0 -39 12 -52 29 -32 9
11 9 20 -1 38 -7 13 -17 26 -22 29 -8 6 -7 24 5 69 3 11 -6 16 -33 18 -45 4
-66 25 -48 48 10 11 25 14 57 10 52 -5 60 -10 45 -29 -17 -20 -4 -27 42 -26
38 1 39 2 11 8 -19 5 -29 12 -26 22 2 8 4 21 5 29 0 8 5 18 11 22 5 4 6 10 2
14 -10 10 -177 21 -244 16 -44 -3 -53 -7 -53 -23 0 -16 -8 -19 -57 -21 -32 -1
-84 0 -117 1 -35 2 -56 -1 -53 -6 4 -6 -5 -15 -19 -22 -35 -16 -44 -14 -44 9
0 15 -7 20 -25 20 -14 0 -25 5 -25 11 0 7 12 10 33 6 17 -2 61 1 97 7 l65 13
-107 7 c-126 9 -2073 14 -2235 6z m882 -842 c0 -20 5 -32 12 -31 6 1 14 -11
18 -27 5 -23 12 -30 31 -30 27 0 31 -12 9 -30 -11 -9 -12 -16 -5 -25 5 -6 6
-16 2 -21 -4 -4 0 -3 9 4 10 7 26 14 36 17 16 3 20 -3 21 -26 0 -16 -4 -31 -9
-34 -5 -4 -9 1 -9 9 0 26 -20 28 -39 4 -17 -20 -21 -21 -44 -9 -17 9 -40 11
-65 7 -39 -6 -40 -5 -46 29 -6 31 -15 40 -38 36 -5 0 -9 9 -9 22 -1 17 -3 16
-9 -8 l-7 -30 -10 24 c-14 36 22 71 74 71 44 0 63 14 63 45 0 17 7 35 14 35 1
0 1 -15 1 -32z"/>
<path d="M3111 4232 c-1 -13 3 -20 9 -17 6 3 10 1 10 -4 0 -6 9 -11 20 -11 11
0 23 -7 27 -16 6 -18 -15 -36 -34 -29 -6 2 -14 -1 -17 -8 -2 -7 -5 -4 -5 6 -1
9 -5 17 -10 17 -5 0 -16 3 -25 6 -10 4 -16 1 -16 -8 0 -16 46 -68 61 -68 5 0
21 -12 35 -27 19 -21 27 -24 33 -14 5 7 23 14 42 16 18 1 35 7 37 13 2 6 -12
8 -37 5 -27 -4 -41 -2 -41 6 0 6 6 11 14 11 47 0 44 75 -4 92 -30 10 -40 27
-17 29 6 0 -1 5 -16 11 -20 7 -32 7 -41 -1 -11 -9 -15 -9 -19 1 -3 7 -6 3 -6
-10z"/>
<path d="M7540 2992 c0 -10 7 -40 16 -66 21 -60 12 -119 -25 -177 -35 -53 -86
-109 -100 -109 -6 0 -11 -7 -11 -15 0 -10 -14 -17 -41 -21 -40 -7 -43 -10 -76
-79 -28 -60 -35 -88 -40 -162 -3 -50 -2 -93 3 -96 5 -3 25 3 44 13 90 45 105
54 110 60 3 4 27 19 53 34 64 35 218 168 255 220 39 54 56 116 41 148 -6 13
-30 37 -53 53 -47 35 -60 73 -27 82 28 7 26 29 -5 71 -42 54 -144 86 -144 44z"/>
<path d="M10655 1149 c-4 -5 -11 -7 -16 -3 -11 6 -44 -33 -44 -51 0 -6 -10
-24 -22 -39 -13 -15 -25 -44 -29 -65 -9 -52 -31 -83 -57 -79 -19 3 -22 -3 -29
-47 -4 -27 -14 -72 -22 -100 -9 -27 -20 -116 -25 -196 -5 -80 -13 -154 -19
-165 -10 -20 -36 -101 -37 -119 0 -5 -4 -15 -8 -22 -10 -17 13 -21 130 -23
142 -2 169 4 168 38 0 34 39 171 61 214 10 18 23 60 30 93 6 33 14 67 18 75 3
8 1 22 -4 30 -8 13 -12 12 -27 -4 -10 -10 -13 -16 -7 -13 7 4 14 -2 17 -14 5
-18 2 -20 -21 -16 -15 3 -35 1 -45 -5 -13 -6 -23 -6 -34 3 -16 14 -15 27 8
149 7 36 13 84 13 107 1 22 4 39 8 37 4 -2 9 0 12 5 4 5 2 12 -3 16 -14 8 -2
35 15 35 17 0 22 75 9 136 -5 24 -31 39 -40 23z"/>
<path d="M9870 926 c-19 -7 -39 -22 -45 -34 -9 -20 -66 -38 -145 -46 -14 -1
-38 -7 -53 -14 -16 -7 -33 -12 -38 -12 -6 0 -8 -4 -4 -9 7 -12 -7 -21 -42 -27
-15 -3 -30 -7 -32 -10 -9 -9 -12 -370 -4 -393 7 -16 6 -37 0 -59 -8 -26 -8
-35 2 -42 10 -6 9 -10 -5 -19 -14 -8 52 -10 251 -11 199 0 266 3 258 11 -6 6
-9 17 -7 23 6 15 -40 41 -55 32 -5 -4 -18 -2 -28 3 -31 17 -83 30 -83 22 0
-13 -32 -23 -42 -13 -8 8 38 55 60 59 6 2 23 -2 37 -7 17 -7 25 -6 25 1 0 8 5
7 15 -1 12 -10 18 -10 30 0 22 18 18 30 -9 30 -24 0 -41 23 -30 41 3 5 11 9
19 9 8 0 18 7 23 16 5 8 15 16 24 18 23 3 48 32 48 55 0 11 8 24 18 30 12 7
17 21 16 55 0 25 3 46 7 46 12 0 28 61 28 114 0 26 5 54 11 61 8 9 5 14 -10
18 -13 3 -18 10 -14 21 5 12 0 16 -21 16 -14 0 -34 4 -43 9 -31 15 -126 20
-162 7z"/>
<path d="M11039 808 c-7 -13 -24 -37 -38 -53 -41 -48 -88 -117 -163 -238 -58
-93 -103 -251 -77 -268 17 -11 325 -10 394 1 28 4 42 8 33 9 -22 1 -23 -4 7
87 30 93 31 106 4 122 -24 15 -59 7 -59 -14 0 -8 -15 -22 -34 -31 -19 -8 -39
-26 -45 -39 -11 -26 -66 -58 -81 -49 -11 7 -7 108 5 160 12 52 58 165 67 165
4 0 8 14 8 30 0 17 6 33 14 36 22 9 28 34 15 71 -12 38 -33 43 -50 11z"/>
<path d="M11470 378 c0 -7 -11 -26 -25 -42 -14 -16 -25 -35 -25 -42 0 -7 -10
-19 -22 -26 -21 -12 -18 -13 35 -18 82 -7 137 -1 137 16 0 8 -5 14 -11 14 -5
0 -7 5 -4 10 11 17 -27 88 -49 94 -31 8 -36 7 -36 -6z"/>
</g>
</svg>
