<?xml version="1.0" standalone="no"?>
<!DOCTYPE svg PUBLIC "-//W3C//DTD SVG 20010904//EN"
 "http://www.w3.org/TR/2001/REC-SVG-20010904/DTD/svg10.dtd">
<svg version="1.0" xmlns="http://www.w3.org/2000/svg"
 width="800.000000pt" height="600.000000pt" viewBox="0 0 800.000000 600.000000"
 preserveAspectRatio="xMidYMid meet">
<metadata>
Created by potrace 1.11, written by Peter Selinger 2001-2013
</metadata>
<g transform="translate(0.000000,600.000000) scale(0.100000,-0.100000)"
fill="#000000" stroke="none">
<path d="M1162 5881 l-1044 -6 -1 -2880 -2 -2880 3295 0 c1812 0 3308 4 3324
8 15 5 26 10 23 13 -3 3 1 27 8 52 21 74 27 157 15 201 -13 48 -33 57 -117 48
-83 -9 -82 -9 -65 89 15 81 15 85 -4 99 -34 26 -72 17 -152 -35 -42 -27 -86
-50 -99 -50 -21 0 -23 5 -23 49 0 50 -17 77 -42 68 -7 -2 -21 0 -31 5 -17 9
-18 19 -11 120 l7 110 -58 -31 c-108 -58 -121 -44 -117 122 1 67 0 129 -3 138
-8 23 -67 42 -105 34 -20 -4 -39 -2 -53 8 -24 15 -60 23 -153 33 l-61 6 -7
-49 c-4 -26 -19 -72 -34 -102 -43 -88 -95 -104 -108 -34 -7 35 8 175 28 266 5
26 8 54 5 62 -10 23 -68 47 -123 50 -40 3 -66 12 -110 41 -32 20 -77 45 -100
54 -23 10 -64 39 -93 64 -28 25 -64 48 -79 51 -15 4 -37 8 -49 11 -13 2 -23
11 -23 19 0 12 -5 10 -20 -5 -19 -19 -21 -19 -57 -3 -21 10 -50 25 -65 35 -14
10 -41 18 -60 18 l-33 0 -34 -105 c-20 -66 -41 -111 -54 -123 -12 -9 -31 -34
-41 -55 -27 -51 -119 -150 -143 -152 -10 0 -24 -4 -31 -9 -17 -10 -16 34 2 59
7 11 17 40 20 65 4 25 16 72 26 105 25 83 43 162 38 176 -2 6 -10 -8 -18 -32
-24 -80 -110 -243 -150 -289 -47 -53 -60 -45 -60 35 0 28 -5 56 -10 61 -11 11
-4 44 9 44 14 0 5 78 -13 104 -15 23 -17 39 -11 84 6 49 5 55 -8 44 -19 -16
-34 2 -18 21 5 7 8 22 5 33 -5 18 9 25 131 63 74 24 138 41 142 38 7 -7 10
-30 13 -87 2 -30 4 -27 15 24 7 34 21 66 31 73 24 18 121 54 164 61 19 3 52
19 73 35 29 24 37 37 37 63 0 18 4 35 9 38 13 8 22 106 11 127 -6 11 -7 27 -1
42 7 18 6 30 -5 43 -40 54 -94 144 -94 158 0 9 -12 40 -27 69 -30 58 -40 107
-20 108 6 0 41 1 77 2 l65 2 -3 47 c-2 29 3 59 13 78 27 52 17 80 -40 110 -38
20 -51 33 -53 53 -3 22 4 29 37 46 40 21 85 27 116 15 21 -9 41 -49 50 -104 4
-25 14 -58 22 -74 8 -16 19 -58 24 -95 5 -36 16 -72 24 -80 16 -17 43 -8 51
16 4 10 16 41 29 68 31 68 33 75 45 195 6 58 13 117 16 133 5 21 3 27 -10 27
-9 0 -21 12 -27 28 -10 25 -12 26 -23 10 -15 -21 -36 -24 -36 -5 0 8 -4 7 -10
-3 -5 -8 -10 -11 -10 -5 0 5 -5 4 -12 -3 -16 -16 -43 -15 -58 3 -6 7 -33 17
-58 21 -54 8 -64 18 -51 51 13 34 -24 141 -61 177 -17 16 -30 34 -30 40 0 7
-14 24 -31 39 -44 38 -35 58 36 83 33 11 76 30 95 42 19 12 42 22 51 22 17 0
109 -131 153 -218 14 -28 30 -53 36 -57 5 -3 10 -15 10 -26 0 -10 7 -19 15
-19 17 0 20 25 5 35 -5 3 -10 26 -10 50 0 24 -4 47 -10 50 -5 3 -10 19 -10 34
0 15 -4 31 -9 37 -6 5 -12 43 -14 84 -7 110 -17 128 -52 90 -30 -34 -48 -25
-25 13 28 45 25 60 -20 127 -22 32 -40 64 -40 70 0 12 -30 62 -44 71 -29 21
-176 320 -176 359 0 9 -9 43 -21 76 -11 32 -25 77 -30 99 -5 22 -20 54 -32 70
-17 23 -23 47 -25 108 -4 78 -4 79 19 75 19 -2 27 -13 38 -48 7 -25 29 -83 48
-130 39 -96 69 -179 107 -295 19 -60 35 -88 60 -110 38 -34 148 -81 165 -71
15 9 14 73 -1 82 -7 5 -2 15 18 31 l29 24 -30 25 c-16 14 -42 27 -57 31 -32 6
-38 33 -8 33 41 0 81 30 101 76 21 51 24 74 9 74 -14 0 -12 37 3 47 6 4 19 6
27 5 22 -3 90 56 105 92 11 26 11 35 -5 66 -14 28 -17 53 -14 122 l3 87 -61
56 c-34 31 -73 61 -87 67 -135 53 -141 61 -141 185 0 41 -7 106 -15 146 -9 40
-18 82 -21 95 -6 31 -77 107 -113 122 -24 10 -33 9 -53 -4 -23 -15 -26 -15
-45 6 -37 41 -45 69 -50 172 -5 111 -20 196 -35 196 -5 0 -7 4 -4 9 3 5 -2 12
-12 17 -21 9 -2061 12 -3510 5z m3477 -533 c18 -49 25 -217 11 -253 -13 -35
-19 -29 -46 55 -9 30 -22 62 -29 70 -18 23 -45 97 -45 125 0 24 5 26 82 33 10
1 20 -10 27 -30z m-2251 -3140 c-7 -20 -67 -48 -137 -64 -119 -27 -295 -87
-324 -111 -29 -24 -74 -40 -84 -30 -3 3 1 20 8 38 23 53 199 127 368 153 52 9
96 18 99 21 11 11 74 5 70 -7z m-1228 -372 c0 -22 -17 -36 -42 -36 -16 0 -27
-4 -23 -10 3 -5 -7 -12 -22 -16 -29 -7 -84 -33 -93 -43 -3 -3 -25 -16 -50 -29
-50 -24 -102 -29 -118 -9 -24 28 82 107 145 107 17 0 59 7 92 16 34 8 66 12
73 8 7 -4 8 -3 4 4 -5 8 0 12 13 12 12 0 21 -2 21 -4z"/>
<path d="M7440 5860 l55 -7 -70 -3 c-54 -3 -60 -4 -27 -7 26 -3 42 -9 42 -17
0 -8 10 -20 22 -28 21 -14 22 -21 19 -106 -2 -61 1 -92 8 -92 6 0 11 -18 11
-40 0 -22 5 -40 10 -40 6 0 10 -18 10 -40 0 -28 4 -40 14 -40 10 0 16 -22 21
-80 4 -44 11 -80 16 -80 5 0 9 -18 9 -40 0 -33 3 -40 20 -40 18 0 20 -7 20
-57 0 -32 5 -104 12 -160 9 -85 15 -103 28 -103 15 0 18 -22 24 -191 4 -105 4
-249 0 -320 l-7 -129 -81 0 -82 0 4 40 4 40 -41 0 -41 0 0 -40 c0 -31 4 -40
18 -40 16 -1 16 -2 0 -13 -14 -11 -15 -28 -11 -120 3 -59 10 -107 14 -107 5 0
9 -18 9 -40 0 -22 5 -40 10 -40 6 0 10 -18 10 -40 0 -22 5 -40 11 -40 6 0 9
-16 7 -37 -2 -24 -8 -37 -15 -35 -15 2 -16 -18 -7 -107 5 -41 11 -61 20 -61
11 0 14 -19 14 -80 0 -62 3 -80 14 -80 18 0 23 -72 32 -397 5 -176 3 -243 -5
-243 -7 0 -11 -28 -11 -80 0 -47 -4 -80 -10 -80 -6 0 -10 -60 -10 -160 0 -153
1 -160 20 -160 18 0 20 -7 20 -80 0 -47 4 -80 10 -80 6 0 10 -47 10 -120 0
-73 -4 -120 -10 -120 -6 0 -10 -47 -10 -120 0 -113 -1 -120 -20 -120 -19 0
-20 -7 -20 -120 0 -100 -2 -120 -15 -120 -11 0 -15 -11 -15 -40 0 -22 -5 -40
-10 -40 -7 0 -10 -20 -10 -47 1 -27 -6 -66 -15 -88 -8 -22 -18 -48 -22 -57 -3
-10 -9 -18 -14 -18 -5 0 -9 -14 -9 -31 0 -19 -11 -45 -30 -69 -16 -21 -30 -45
-30 -53 0 -8 -8 -18 -17 -21 -14 -6 -15 -9 -4 -15 9 -6 6 -14 -15 -30 -14 -11
-31 -21 -35 -21 -5 0 -9 -7 -9 -15 0 -8 -9 -15 -19 -15 -18 0 -19 -3 -10 -30
6 -16 15 -30 20 -30 5 0 9 -7 9 -15 0 -8 4 -23 9 -33 5 -9 39 -80 76 -157 37
-77 73 -151 80 -165 7 -14 29 -73 49 -133 20 -59 44 -123 52 -142 8 -19 11
-35 7 -35 -5 0 -1 -5 7 -10 8 -5 85 -10 171 -10 l156 0 -4 2428 c-2 1335 -7
2443 -10 2462 l-7 35 -6 -40 c-6 -33 -8 -26 -10 40 -3 67 -4 73 -9 37 l-6 -44
-19 33 c-13 22 -19 48 -17 81 1 28 -2 48 -9 48 -5 0 -10 18 -10 40 0 22 -4 40
-10 40 -5 0 -10 18 -10 40 0 29 -4 40 -15 40 -12 0 -15 16 -15 80 0 74 -1 80
-21 80 -18 0 -20 5 -18 43 1 23 -1 49 -4 57 -3 8 -7 24 -9 35 -2 13 -12 21
-31 23 -30 4 -30 6 -21 101 l7 61 36 1 36 2 -40 7 -40 6 40 6 c22 2 -32 5
-120 5 -103 0 -140 -3 -105 -7z"/>
</g>
</svg>
