<?xml version="1.0" standalone="no"?>
<!DOCTYPE svg PUBLIC "-//W3C//DTD SVG 20010904//EN"
 "http://www.w3.org/TR/2001/REC-SVG-20010904/DTD/svg10.dtd">
<svg version="1.0" xmlns="http://www.w3.org/2000/svg"
 width="800.000000pt" height="600.000000pt" viewBox="0 0 800.000000 600.000000"
 preserveAspectRatio="xMidYMid meet">
<metadata>
Created by potrace 1.11, written by Peter Selinger 2001-2013
</metadata>
<g transform="translate(0.000000,600.000000) scale(0.100000,-0.100000)"
fill="#000000" stroke="none">
<path d="M146 5851 c-3 -5 -6 -1288 -6 -2851 -1 -2309 2 -2845 12 -2852 7 -4
381 -8 831 -8 728 0 818 2 824 15 5 14 29 15 187 10 99 -3 208 -10 241 -15 78
-13 695 -13 715 0 13 8 12 10 -4 10 -22 0 -103 37 -112 51 -3 5 -11 9 -19 9
-8 0 -26 5 -40 10 -22 8 -25 13 -16 24 15 18 -1 29 -42 28 -16 0 -36 5 -43 11
-36 32 -49 41 -107 68 -90 43 -277 178 -277 200 0 13 22 2 142 -68 144 -83
189 -104 403 -182 193 -71 216 -76 272 -61 86 22 196 60 243 85 14 7 48 25 75
39 28 14 59 31 69 38 11 7 60 40 110 72 50 33 102 70 116 83 25 24 173 113
186 113 4 0 22 11 40 25 64 49 125 75 176 75 41 0 53 5 73 28 40 45 45 51 45
58 0 4 31 39 68 78 82 86 155 187 172 240 16 50 16 175 0 248 -7 31 -25 78
-39 104 -26 47 -75 93 -87 82 -3 -4 1 -37 9 -75 23 -101 3 -189 -67 -293 -17
-25 -42 -65 -55 -90 -62 -116 -128 -180 -184 -180 -31 0 -90 -24 -106 -44 -7
-9 -17 -13 -22 -11 -7 5 -74 -47 -91 -70 -10 -13 -18 -2 -24 31 -2 16 -7 35
-9 42 -3 8 -2 19 2 25 8 12 28 135 37 228 3 26 12 66 21 90 20 58 19 76 -5 84
-16 5 -19 14 -15 61 2 36 -1 54 -8 54 -7 0 -23 9 -37 20 -21 17 -23 21 -10 30
8 5 11 10 5 11 -5 1 -14 3 -20 4 -5 2 -16 3 -22 4 -7 0 -13 6 -13 13 0 6 -7
20 -17 30 -15 17 -14 18 21 18 34 0 36 1 22 16 -14 14 -14 18 5 44 12 15 19
33 15 38 -11 19 23 81 49 88 19 5 26 15 35 57 8 41 21 64 61 106 71 76 102
119 94 131 -3 5 -1 10 4 10 6 0 11 6 11 13 0 6 18 28 40 47 42 37 49 54 26 63
-15 6 -10 57 7 68 14 10 -1 29 -23 29 -15 0 -18 7 -17 35 1 19 5 35 8 35 10 0
7 80 -2 86 -5 3 -9 18 -9 34 0 44 -15 73 -64 129 -25 28 -43 57 -40 64 3 8 -5
35 -16 62 -11 27 -17 52 -13 56 4 4 26 9 48 11 35 3 40 6 37 26 -2 12 1 22 7
22 6 0 17 12 25 28 20 40 10 116 -20 145 -37 34 -30 51 30 76 30 12 60 29 67
37 7 9 31 14 65 14 56 0 74 -14 74 -58 0 -11 13 -44 29 -74 17 -31 37 -83 46
-117 18 -70 45 -131 57 -131 4 0 8 7 8 14 0 8 16 50 36 93 35 76 84 241 105
353 13 66 5 200 -14 255 -8 22 -17 75 -21 117 -10 102 -71 225 -146 293 -12
11 -37 35 -55 53 -22 22 -35 30 -40 22 -5 -8 -14 -5 -31 11 l-23 22 -21 -24
c-13 -16 -19 -33 -16 -50 14 -79 18 -177 7 -197 -10 -18 -6 -32 24 -89 52 -98
72 -127 143 -201 49 -51 62 -71 60 -91 -2 -17 -9 -26 -21 -26 -9 0 -26 -14
-36 -31 -11 -18 -29 -39 -41 -47 -21 -14 -27 -14 -74 8 -28 13 -58 26 -67 29
-19 5 -49 59 -49 87 0 9 -13 30 -29 45 -17 15 -32 38 -36 51 -3 13 -10 23 -16
23 -6 0 -8 4 -5 9 3 5 -3 11 -13 14 -11 2 -29 23 -40 46 -21 40 -48 56 -87 49
-36 -6 -27 17 20 51 l47 33 56 -17 c50 -16 60 -16 81 -4 37 21 51 47 32 59 -8
6 -24 8 -35 4 -67 -19 -65 -20 -47 28 15 44 15 45 -23 154 -26 75 -48 120 -70
144 -18 19 -38 45 -44 57 -20 38 -58 156 -71 218 -7 33 -23 81 -37 107 -42 81
-9 154 46 99 10 -10 21 -36 25 -57 4 -22 20 -73 36 -114 15 -41 35 -95 44
-120 12 -34 29 -56 66 -84 55 -42 172 -95 210 -96 35 0 130 -35 140 -50 5 -8
25 -14 45 -15 31 -1 39 4 48 25 6 14 12 35 13 48 2 19 -2 22 -29 22 -27 0 -36
7 -55 40 l-23 40 30 18 c22 12 29 22 25 35 -3 11 0 17 10 17 9 0 16 7 16 15 0
8 -7 15 -15 15 -8 0 -24 18 -35 39 -18 36 -18 41 -4 55 8 9 24 16 35 16 19 0
19 1 2 27 -18 27 -45 163 -44 219 1 21 -8 40 -28 60 -29 29 -147 94 -173 94
-7 0 -23 15 -36 34 -17 24 -29 32 -42 29 -14 -4 -22 2 -29 21 -12 31 -7 156 9
215 8 32 8 46 0 56 -7 8 -10 20 -7 27 2 7 -3 26 -12 41 -12 21 -21 27 -38 22
-15 -3 -30 2 -43 15 -22 22 -26 40 -10 40 19 0 10 32 -11 37 -12 3 -18 11 -15
19 3 7 -1 29 -9 48 -8 20 -15 46 -15 60 0 14 -9 31 -20 39 -10 7 -24 25 -29
40 -6 15 -15 27 -21 27 -5 0 -10 6 -10 14 0 15 -30 26 -72 26 -18 0 -28 5 -28
15 0 8 -12 26 -26 40 -17 17 -23 32 -19 44 5 18 -27 61 -46 61 -4 0 -11 9 -14
20 -3 11 -13 20 -21 20 -7 0 -19 9 -26 20 -13 20 -24 20 -1735 20 -983 0
-1724 -4 -1727 -9z"/>
<path d="M3840 5852 c0 -7 4 -12 8 -12 5 0 15 -15 24 -32 l16 -33 7 28 c8 30
20 35 29 11 3 -8 2 -12 -4 -9 -17 10 -11 -4 10 -25 12 -12 18 -24 16 -29 -7
-11 32 -46 41 -38 3 4 14 -4 22 -17 9 -13 36 -41 61 -62 91 -77 234 -231 288
-311 12 -18 28 -33 34 -33 6 0 8 -3 5 -7 -6 -5 32 -64 52 -83 4 -3 6 -9 6 -15
1 -5 6 -21 12 -35 19 -42 63 -188 63 -210 0 -12 5 -18 10 -15 6 3 10 -2 10
-12 0 -10 8 -40 19 -68 10 -27 16 -57 14 -65 -4 -13 -3 -13 6 0 9 12 11 12 16
-2 4 -10 4 -21 1 -26 -3 -5 8 -20 24 -32 17 -13 30 -31 30 -40 0 -10 9 -20 20
-23 29 -8 34 -33 11 -56 -18 -18 -20 -18 -24 -3 -3 11 -5 7 -6 -8 0 -15 5 -32
11 -38 10 -10 10 -17 0 -33 -16 -26 -18 -185 -2 -204 7 -9 13 -59 15 -122 3
-121 12 -176 28 -166 6 3 7 1 3 -5 -4 -7 -1 -49 8 -95 14 -79 17 -232 4 -252
-3 -5 -9 -41 -13 -79 -6 -51 -4 -70 5 -76 11 -7 10 -15 -2 -42 -18 -38 -11
-118 13 -156 12 -21 12 -25 -3 -36 -10 -7 -18 -23 -18 -34 0 -20 1 -20 27 4
l28 25 8 -24 c6 -18 18 -27 43 -31 55 -11 68 5 34 42 -14 15 -16 23 -8 28 6 4
19 -2 28 -13 14 -17 19 -18 33 -8 10 7 16 19 15 26 -2 8 7 15 19 17 35 5 48
28 28 48 -16 16 -15 18 9 31 37 19 70 1 62 -33 -6 -21 -3 -24 23 -24 16 0 33
5 36 10 3 6 0 10 -8 10 -8 0 -22 9 -33 21 -18 20 -18 21 1 35 26 19 30 18 43
-11 11 -25 13 -25 36 -10 26 17 25 45 0 45 -8 0 -14 8 -14 18 0 9 -3 28 -7 41
l-6 25 29 -27 c16 -15 36 -27 45 -27 9 0 19 -7 23 -15 8 -23 46 -19 46 5 0 11
7 20 15 20 8 0 15 6 15 13 1 6 8 0 16 -15 18 -35 34 -36 34 -3 0 14 -5 25 -11
25 -6 0 -17 7 -25 15 -14 13 -13 15 3 15 10 0 29 -7 41 -16 12 -8 22 -11 22
-5 0 5 8 11 18 13 12 3 5 10 -23 22 l-40 17 24 20 c13 10 18 19 12 19 -18 0
-13 24 9 40 11 8 20 25 20 37 0 14 6 23 15 23 8 0 15 7 15 15 0 8 -6 15 -14
15 -8 0 -16 -7 -20 -15 -3 -8 -13 -15 -22 -15 -10 0 -14 -5 -11 -14 9 -23 -22
-28 -40 -7 -9 11 -22 17 -30 14 -8 -3 -19 0 -24 8 -12 19 -11 59 1 59 6 0 10
-7 10 -16 0 -11 6 -14 20 -9 13 4 22 1 26 -9 8 -21 24 -10 24 15 0 13 -7 19
-23 19 -27 0 -54 37 -38 53 6 6 11 7 11 1 0 -5 4 -3 9 5 6 9 4 19 -6 29 -12
12 -16 13 -23 2 -4 -7 -13 -9 -19 -6 -17 11 -13 37 7 52 14 11 14 15 4 22 -8
5 -16 28 -19 51 -5 39 -9 43 -59 67 -30 14 -54 32 -54 40 0 17 -14 18 -41 4
-21 -12 -26 -40 -6 -40 8 0 7 -4 -3 -10 -24 -16 -30 -12 -30 20 0 19 -5 30
-14 30 -10 0 -14 9 -13 28 2 26 -1 27 -45 30 -51 3 -60 14 -28 34 12 8 20 24
20 41 l0 27 36 -15 c45 -19 62 -8 56 35 -4 28 -7 30 -48 30 -37 0 -44 3 -44
20 0 14 -5 18 -16 13 -13 -5 -15 -2 -10 14 7 21 -32 63 -59 63 -13 0 -13 3 -3
22 25 42 43 58 65 58 18 0 22 6 25 38 3 36 4 37 41 34 31 -2 37 0 37 17 0 15
8 21 33 23 l32 4 -25 11 c-20 8 -25 17 -24 44 1 29 4 34 22 31 16 -2 23 4 28
22 5 20 13 26 33 26 24 1 25 2 8 14 -17 13 -17 15 2 28 12 8 18 18 14 21 -3 4
-1 7 5 7 7 0 12 9 12 20 0 11 -4 20 -10 20 -5 0 -10 9 -10 20 0 11 5 20 10 20
6 0 10 -9 10 -19 0 -20 36 -39 48 -26 4 3 -1 19 -10 35 -22 38 -13 70 18 70
13 0 24 -5 24 -10 0 -6 11 -15 25 -20 14 -5 25 -16 25 -24 0 -19 -17 -30 -25
-17 -3 6 -13 3 -23 -7 -17 -16 -16 -17 6 -24 16 -4 30 -2 39 8 8 7 18 14 23
14 5 0 8 9 7 21 -1 20 -40 61 -69 72 -10 4 -9 9 5 20 9 8 17 18 17 22 0 5 -8
17 -17 28 -15 17 -16 20 -2 15 12 -5 15 -1 11 18 -5 29 13 32 30 4 23 -36 41
-25 33 20 l-7 40 37 0 c32 0 36 2 25 15 -7 8 -19 15 -26 15 -17 0 -18 11 -1
33 11 16 25 18 106 16 18 -1 36 3 40 8 3 5 14 13 25 16 13 5 17 14 14 32 -4
17 -1 25 8 25 28 0 13 19 -31 40 -55 27 -57 40 -6 40 26 0 41 5 45 16 9 22 8
24 -9 24 -8 0 -15 4 -15 9 0 5 -8 17 -17 27 -17 17 -16 17 11 10 17 -4 36 -15
43 -24 11 -15 12 -15 13 7 0 13 -3 22 -6 18 -3 -3 -24 1 -46 9 -23 8 -42 13
-42 12 -1 -2 -8 -11 -15 -21 -12 -15 -11 -20 4 -37 13 -14 15 -24 8 -31 -15
-15 -63 7 -63 30 0 11 -3 27 -6 36 -5 13 -9 14 -15 4 -6 -11 -19 -11 -71 0
-66 13 -81 21 -60 28 22 8 13 24 -10 18 -25 -6 -79 6 -75 17 1 3 -10 16 -25
28 -21 16 -35 20 -61 15 -24 -5 -38 -2 -50 9 -18 19 -110 56 -137 56 -31 0
-25 36 8 48 21 8 23 11 7 11 -11 1 -26 10 -33 21 -9 14 -19 19 -35 15 -15 -4
-30 2 -48 19 -15 14 -29 23 -32 20 -3 -3 -44 -2 -91 2 -80 6 -87 8 -92 31 -5
17 -1 28 12 38 11 7 17 16 14 19 -3 3 -184 8 -403 12 -298 5 -397 4 -397 -4z"/>
</g>
</svg>
